<?xml version="1.0" encoding="UTF-8"?>
<svg version="1.1" xmlns="http://www.w3.org/2000/svg" width="1600" height="1600">
<path d="M0 0 C1.05752975 -0.00394272 2.11505951 -0.00788544 3.20463562 -0.01194763 C6.71014414 -0.0186731 10.21435664 0.01056157 13.71972656 0.04077148 C16.16432442 0.04502379 18.60892632 0.04735041 21.05352783 0.0478363 C26.18837687 0.05401072 31.32279129 0.07673799 36.45751953 0.11230469 C43.00032844 0.15729086 49.54274027 0.17231564 56.08568954 0.1760416 C61.14245436 0.18050187 66.19913784 0.19586556 71.255867 0.21491814 C73.66529935 0.22372965 76.07474017 0.23049339 78.48418427 0.23507881 C127.44468658 0.36746881 127.44468658 0.36746881 145.34472656 17.25170898 C152.51908792 24.6858317 155.55488281 33.78683127 155.98535156 44.09936523 C155.57193458 54.00339812 152.78662056 63.57241169 145.57910156 70.57202148 C143.62455358 72.29641436 141.62869078 73.9508321 139.61035156 75.59936523 C138.95035156 76.25936523 138.29035156 76.91936523 137.61035156 77.59936523 C138.12984375 77.90229492 138.64933594 78.20522461 139.18457031 78.51733398 C143.56159208 81.14678329 147.16555074 83.77180876 150.61035156 87.59936523 C151.29097656 88.27999023 151.97160156 88.96061523 152.67285156 89.66186523 C159.32739202 99.75100722 159.82675054 111.18510122 158.13769531 122.86889648 C155.98779414 132.89747741 151.34974219 141.89764384 142.61035156 147.59936523 C131.0753065 154.32538721 119.22272587 157.73039857 105.84620667 157.71961975 C104.88168395 157.72090139 104.88168395 157.72090139 103.89767593 157.72220892 C101.76354185 157.72384354 99.62948805 157.71837573 97.49536133 157.71289062 C95.95740257 157.71260829 94.41944367 157.71276739 92.88148499 157.71333313 C88.72086328 157.7136193 84.56027057 157.70775172 80.39965558 157.70075917 C76.04613725 157.69449561 71.69261821 157.69391946 67.33909607 157.69273376 C59.1015688 157.6896293 50.86405486 157.68142784 42.62653345 157.67138427 C31.49058371 157.65810238 20.35463032 157.65271609 9.21867466 157.64688206 C-8.31744301 157.63748735 -25.85353258 157.61756252 -43.38964844 157.59936523 C-43.38964844 125.91936523 -43.38964844 94.23936523 -43.38964844 61.59936523 C-32.98046875 61.56198242 -22.57128906 61.52459961 -11.84667969 61.48608398 C-5.26137979 61.45581638 1.32390234 61.42479882 7.90917969 61.39038086 C18.36692716 61.33586352 28.82462526 61.28445209 39.2824707 61.25292969 C46.89843455 61.22995929 54.51426919 61.19657205 62.13013059 61.15066367 C66.16287074 61.12671844 70.19548284 61.10799822 74.22829247 61.10175133 C78.02454592 61.0957063 81.82047167 61.07572783 85.61660385 61.04508972 C87.00934258 61.03630011 88.40212411 61.03258884 89.79488945 61.03435707 C91.69807005 61.03601034 93.60123629 61.01754055 95.50431824 60.99809265 C97.10132458 60.9911792 97.10132458 60.9911792 98.73059368 60.98412609 C102.03569765 60.54253527 103.93940552 59.56606115 106.61035156 57.59936523 C107.89649566 54.30277484 107.64003913 50.72749275 107.54785156 47.22436523 C105.99217308 44.52785587 103.51445491 44.39851155 100.61035156 43.59936523 C97.59143422 43.29370362 97.59143422 43.29370362 94.42202759 43.32089233 C93.20214142 43.30972885 91.98225525 43.29856537 90.72540283 43.2870636 C89.38708527 43.28469907 88.04876737 43.28252334 86.71044922 43.28051758 C85.29085727 43.27121213 83.87127076 43.26104254 82.45169067 43.25007629 C78.60920483 43.22283165 74.76675554 43.20764336 70.92419863 43.19464827 C66.90428773 43.17899344 62.8844512 43.15221073 58.86459351 43.12661743 C51.25747157 43.07987123 43.65033559 43.04310702 36.04314363 43.00994456 C27.38048727 42.97169376 18.71790568 42.92229135 10.0553124 42.8719604 C-7.75961979 42.76870242 -25.57459764 42.6794221 -43.38964844 42.59936523 C-41.63218123 39.63690148 -39.89940762 36.83468287 -37.70996094 34.17358398 C-37.19941162 33.54943604 -36.6888623 32.92528809 -36.1628418 32.28222656 C-35.34698608 31.29452271 -35.34698608 31.29452271 -34.51464844 30.28686523 C-33.35180113 28.86766559 -32.18904343 27.44839252 -31.02636719 26.02905273 C-30.42872559 25.30169922 -29.83108398 24.5743457 -29.21533203 23.82495117 C-26.2398037 20.1976556 -23.28407494 16.55432666 -20.32714844 12.91186523 C-19.7917041 12.253396 -19.25625977 11.59492676 -18.70458984 10.91650391 C-18.19718262 10.29235596 -17.68977539 9.66820801 -17.16699219 9.02514648 C-16.72605225 8.482854 -16.2851123 7.94056152 -15.83081055 7.38183594 C-14.26714808 5.55043155 -14.26714808 5.55043155 -12.94892883 3.02542114 C-9.01156983 -0.70697687 -5.23787361 -0.07782355 0 0 Z M6.61035156 96.59936523 C6.61035156 103.19936523 6.61035156 109.79936523 6.61035156 116.59936523 C18.910453 116.6671296 31.21043055 116.72217488 43.51067638 116.75480175 C49.22211324 116.77046063 54.93341582 116.7917032 60.64477539 116.82568359 C66.1560886 116.85826876 71.6672726 116.87621658 77.1786747 116.88399696 C79.28183336 116.88954196 81.38498492 116.90036989 83.48808861 116.9165554 C86.43288862 116.93831821 89.37715405 116.94133261 92.32202148 116.93994141 C93.19236526 116.95072723 94.06270905 116.96151306 94.95942688 116.97262573 C99.68177346 116.94846983 102.76901082 116.65358727 106.61035156 113.59936523 C109.16175971 110.53767546 109.61035156 109.05651688 109.61035156 105.03686523 C108.42111508 100.94886484 107.18148662 99.81006789 103.61035156 97.59936523 C99.62084327 96.26952914 95.79946101 96.4686185 91.64086914 96.48583984 C90.72359543 96.48569382 89.80632172 96.48554779 88.86125183 96.48539734 C85.82577153 96.48609466 82.79035241 96.49387867 79.75488281 96.50170898 C77.65166762 96.5035738 75.54845199 96.50499741 73.44523621 96.5059967 C67.9066549 96.50981684 62.36809977 96.51964287 56.82952881 96.53070068 C51.17899937 96.5409256 45.52846571 96.54549664 39.87792969 96.55053711 C28.78872362 96.56126556 17.69954386 96.57885832 6.61035156 96.59936523 Z " fill="#FFFFFF" transform="translate(862.3896484375,827.400634765625)"/>
<path d="M0 0 C1.03364182 -0.00452682 2.06728363 -0.00905365 3.13224792 -0.01371765 C6.54328599 -0.0176372 9.94991847 0.0426306 13.36035156 0.10424805 C15.74862173 0.11597607 18.13691275 0.12398799 20.52520752 0.12846375 C26.81842538 0.15146841 33.10981981 0.23015981 39.40240479 0.31890869 C44.49078929 0.38112651 49.5789592 0.40314461 54.66765976 0.42289448 C60.79450744 0.44789336 66.92115419 0.49279644 73.04785156 0.54174805 C74.19356377 0.55005457 75.33927597 0.55836109 76.51970673 0.56691933 C105.27087607 0.81380013 134.22482925 1.97822842 157.50097656 21.0534668 C167.29623204 31.13984001 171.5622328 43.62039161 171.87597656 57.5534668 C171.53504134 72.06544863 167.03308185 84.16550973 157.01660156 94.72924805 C149.81396635 101.38385667 141.74666165 105.08633221 132.50097656 108.0534668 C132.92113037 108.4028833 133.34128418 108.7522998 133.77416992 109.11230469 C140.26005773 114.6392552 146.24517872 120.64605091 152.25561523 126.67773438 C154.05959741 128.48707612 155.86886321 130.29100999 157.67871094 132.09448242 C163.01188698 137.42490579 168.27355595 142.75460275 173.1652832 148.49951172 C174.82729852 150.43311207 176.60317498 152.22225212 178.43847656 153.9909668 C179.47741347 154.99336966 180.50465735 156.00869437 181.50097656 157.0534668 C181.50097656 157.3834668 181.50097656 157.7134668 181.50097656 158.0534668 C172.9211203 158.30923801 164.34287578 158.50422214 155.76014042 158.62340069 C151.77385663 158.68062691 147.79019453 158.75811656 143.80541992 158.88330078 C139.95371064 159.00353629 136.10450817 159.06873093 132.25106621 159.09711647 C130.78720059 159.1173198 129.32346047 159.15677999 127.8606739 159.21649742 C116.42237733 159.66454529 116.42237733 159.66454529 111.6473999 155.6607666 C109.36736041 152.88951707 107.41869496 150.08253029 105.50097656 147.0534668 C104.48585419 145.80701864 103.45272021 144.57440108 102.38378906 143.3737793 C101.69893433 142.57858887 101.69893433 142.57858887 101.00024414 141.76733398 C100.54673584 141.24300781 100.09322754 140.71868164 99.62597656 140.1784668 C98.61137075 138.9990226 97.59705536 137.81932851 96.58300781 136.6394043 C95.82431396 135.75720215 95.82431396 135.75720215 95.05029297 134.85717773 C92.46364427 131.8458067 89.88540526 128.82741599 87.31347656 125.8034668 C86.84377441 125.2544873 86.37407227 124.70550781 85.89013672 124.13989258 C82.61607872 120.28367111 82.61607872 120.28367111 81.50097656 118.0534668 C44.87097656 117.5584668 44.87097656 117.5584668 7.50097656 117.0534668 C7.50097656 130.5834668 7.50097656 144.1134668 7.50097656 158.0534668 C-8.66902344 158.0534668 -24.83902344 158.0534668 -41.49902344 158.0534668 C-41.49902344 131.6534668 -41.49902344 105.2534668 -41.49902344 78.0534668 C-26.62195313 77.97999023 -26.62195313 77.97999023 -11.44433594 77.9050293 C-5.15526479 77.86963744 1.1337972 77.83375403 7.42285156 77.7956543 C17.40167138 77.73529281 27.38047405 77.67691905 37.359375 77.6315918 C44.62780624 77.59856708 51.89616253 77.55867859 59.16451085 77.51067674 C63.01015123 77.48551552 66.85574256 77.46370411 70.70144272 77.45012283 C74.32774918 77.43720763 77.95388649 77.41505337 81.58009911 77.3860836 C83.5319173 77.37281768 85.48379326 77.36910471 87.43565369 77.36576843 C97.94072606 77.26666271 108.2039646 76.87963325 116.31347656 69.4909668 C119.70782698 65.70869062 119.80687492 63.29493629 119.69628906 58.3659668 C119.39354319 54.7814557 118.7194859 52.92447888 116.50097656 50.0534668 C110.00641846 45.95689938 104.20100264 43.94188159 96.55316162 43.89524841 C95.33602478 43.88545959 94.11888794 43.87567078 92.86486816 43.86558533 C91.5192875 43.85968159 90.17370643 43.85387112 88.828125 43.84814453 C87.40883094 43.83856261 85.98953972 43.82855234 84.57025146 43.81814575 C80.71938963 43.79112464 76.86851557 43.77009996 73.0176115 43.75014377 C68.99237024 43.72826698 64.96716653 43.70088657 60.94195557 43.67408752 C53.32059317 43.62418354 45.6992099 43.57923619 38.07780671 43.53606516 C29.40070797 43.48667318 20.7236469 43.43176232 12.04658461 43.37638557 C-5.80191642 43.26260073 -23.65045301 43.15575407 -41.49902344 43.0534668 C-39.92826618 38.86346963 -38.08166075 36.12454217 -35.12402344 32.7409668 C-30.4607058 27.31036621 -26.13339812 21.67688794 -21.87451172 15.92529297 C-20.95105369 14.6787041 -20.01931826 13.43819096 -19.07817459 12.20489979 C-17.46530861 10.06306358 -17.46530861 10.06306358 -16.04810715 7.73532391 C-11.46208765 0.86569485 -8.06833595 -0.24446822 0 0 Z " fill="#FFFFFF" transform="translate(356.4990234375,826.946533203125)"/>
<path d="M0 0 C9.43757214 6.42558103 15.40609449 16.79595527 21.71484375 26.0859375 C25.35500027 31.44266623 29.0639583 36.75091484 32.76953125 42.0625 C38.20578286 49.86403151 43.60297828 57.69035615 48.96044922 65.54614258 C53.23538538 71.80629241 57.55954868 78.03131533 61.89453125 84.25 C67.28736411 91.98620805 72.64246607 99.74610975 77.9543457 107.53808594 C82.28909541 113.88761608 86.68227526 120.19539638 91.08203125 126.5 C95.73579547 133.17535407 100.36965392 139.86141151 104.89453125 146.625 C105.30985107 147.24342773 105.7251709 147.86185547 106.15307617 148.49902344 C108.89453125 152.62589349 108.89453125 152.62589349 108.89453125 153.75 C48.83453125 153.75 -11.22546875 153.75 -73.10546875 153.75 C-71.72890067 150.99686385 -70.51754633 148.77040311 -68.77734375 146.30859375 C-68.31368408 145.65117188 -67.85002441 144.99375 -67.37231445 144.31640625 C-66.87175537 143.61386719 -66.37119629 142.91132812 -65.85546875 142.1875 C-65.33621826 141.4553125 -64.81696777 140.723125 -64.28198242 139.96875 C-46.87608912 115.52062037 -46.87608912 115.52062037 -44.10546875 112.75 C-42.08052644 112.65590521 -40.05227005 112.63256878 -38.02514648 112.63647461 C-36.07323647 112.63658791 -36.07323647 112.63658791 -34.08189392 112.63670349 C-32.65094973 112.64181091 -31.22000593 112.64702692 -29.7890625 112.65234375 C-28.33317615 112.65420797 -26.87728918 112.65563185 -25.42140198 112.65663147 C-21.58267496 112.66045635 -17.74398556 112.67028636 -13.90527344 112.68133545 C-9.99089059 112.69155022 -6.07650169 112.69612923 -2.16210938 112.70117188 C5.52345468 112.71190866 13.2089877 112.72898471 20.89453125 112.75 C20.1660498 111.72583984 19.43756836 110.70167969 18.68701172 109.64648438 C11.32571114 99.27240246 4.12750972 88.79884338 -2.98046875 78.25 C-3.98291617 76.76551914 -4.98552009 75.28114395 -5.98828125 73.796875 C-10.71595136 66.79586978 -15.43489029 59.789282 -20.10546875 52.75 C-24.61682782 56.89512328 -27.85006616 61.53634764 -31.23046875 66.625 C-35.23057137 72.56153007 -39.27168052 78.44261335 -43.54296875 84.1875 C-49.66455294 92.43808637 -55.51888586 100.87073202 -61.39306641 109.29833984 C-65.44122716 115.09412403 -69.52994149 120.86138615 -73.61132812 126.63378906 C-75.17991456 128.85544056 -76.74463262 131.07977786 -78.30859375 133.3046875 C-78.83952637 134.05919189 -79.37045898 134.81369629 -79.91748047 135.59106445 C-80.92006394 137.01601088 -81.92177027 138.4415751 -82.92236328 139.86791992 C-83.81914875 141.14148094 -84.7282678 142.40649226 -85.65237427 143.66036987 C-87.13377507 145.70036296 -87.13377507 145.70036296 -88.21600342 147.85362244 C-89.64006239 150.29384651 -90.91243908 151.95197434 -93.10546875 153.75 C-97.6078662 154.86907256 -101.98265487 154.6825337 -106.59765625 154.53125 C-107.89873322 154.51993042 -109.19981018 154.50861084 -110.54031372 154.49694824 C-113.98401936 154.46653645 -117.42498504 154.38808365 -120.86761475 154.29931641 C-124.38662651 154.21717868 -127.9060853 154.18087821 -131.42578125 154.140625 C-138.32012947 154.05506704 -145.21266727 153.91870259 -152.10546875 153.75 C-151.00134311 151.99919073 -149.89514486 150.24968842 -148.78808594 148.50073242 C-148.17229675 147.52633713 -147.55650757 146.55194183 -146.92205811 145.54801941 C-144.56405759 141.9160862 -142.00308736 138.4855282 -139.35546875 135.0625 C-134.827403 129.11750301 -130.51439398 123.06697066 -126.31689453 116.88525391 C-122.87790664 111.83512039 -119.3275379 106.87603092 -115.73046875 101.9375 C-111.20353713 95.71759142 -106.79979178 89.42825707 -102.48046875 83.0625 C-98.17232721 76.71619462 -93.76209721 70.47067749 -89.1965332 64.30737305 C-85.79178665 59.70588119 -82.46311605 55.05555851 -79.16796875 50.375 C-78.66974609 49.66730469 -78.17152344 48.95960938 -77.65820312 48.23046875 C-76.13956106 46.07105771 -74.62225537 43.91071465 -73.10546875 41.75 C-67.19967844 33.33699877 -61.28355185 24.9329896 -55.23046875 16.625 C-54.80241943 16.03380371 -54.37437012 15.44260742 -53.93334961 14.83349609 C-45.19208701 2.9035648 -45.19208701 2.9035648 -39.16796875 -0.5625 C-37.97880859 -1.26826172 -37.97880859 -1.26826172 -36.765625 -1.98828125 C-24.62533042 -7.74645328 -11.36475932 -6.74716695 0 0 Z " fill="#FFFFFF" transform="translate(1403.10546875,831.25)"/>
<path d="M0 0 C7.59103924 5.80216728 12.61807037 14.8970459 17.90625 22.70703125 C18.93778792 24.21553775 19.97033526 25.7233545 21.00390625 27.23046875 C22.59287771 29.54865798 24.18055342 31.86767258 25.76391602 34.18969727 C30.14797255 40.61821988 34.5825709 47.01059549 39.03125 53.39453125 C45.78709202 63.09040822 52.49754923 72.81605645 59.17871094 82.56347656 C65.05518774 91.13427099 70.9675194 99.67923102 76.90625 108.20703125 C82.39278261 116.08549168 87.86186873 123.97507887 93.2890625 131.89453125 C95.19218467 134.67119379 97.10554765 137.44054891 99.0234375 140.20703125 C99.53672607 140.94896729 100.05001465 141.69090332 100.57885742 142.45532227 C101.56938626 143.88676015 102.56166546 145.31698881 103.5559082 146.74584961 C106.90625 151.59465651 106.90625 151.59465651 106.90625 152.70703125 C46.51625 152.70703125 -13.87375 152.70703125 -76.09375 152.70703125 C-69.35511932 142.59908522 -69.35511932 142.59908522 -66.76171875 139.12890625 C-66.19001953 138.35933594 -65.61832031 137.58976563 -65.02929688 136.796875 C-64.16401367 135.63865234 -64.16401367 135.63865234 -63.28125 134.45703125 C-62.12685081 132.91168957 -60.97454903 131.36477915 -59.82421875 129.81640625 C-59.25059601 129.06395126 -58.67697327 128.31149628 -58.08596802 127.53623962 C-56.00909927 124.70194177 -56.00909927 124.70194177 -54.29916382 121.40895081 C-49.10977864 112.39392975 -49.10977864 112.39392975 -43.74183655 110.56497192 C-39.69032317 110.20227654 -35.83118417 110.23885018 -31.77734375 110.4375 C-30.31055404 110.461791 -28.84365779 110.48027514 -27.37672424 110.49324036 C-23.54167045 110.54254985 -19.71316588 110.66988888 -15.88067627 110.81439209 C-11.9597639 110.94813479 -8.03777707 111.00690799 -4.11523438 111.07226562 C3.5615591 111.21109734 11.23298233 111.43249856 18.90625 111.70703125 C18.205 110.7634375 17.50375 109.81984375 16.78125 108.84765625 C11.68035112 101.95597604 6.69767124 95.0273827 1.98779297 87.85986328 C-0.44977688 84.16777121 -2.93857823 80.51277307 -5.43359375 76.859375 C-6.36013672 75.49942436 -7.28656851 74.13939796 -8.21289062 72.77929688 C-9.63538801 70.69126596 -11.05897129 68.60401266 -12.4855957 66.51879883 C-13.8881776 64.46785136 -15.28627392 62.41390983 -16.68359375 60.359375 C-17.11268539 59.73441635 -17.54177704 59.1094577 -17.98387146 58.46556091 C-19.73193076 55.88832632 -21.10324235 53.67855421 -22.09375 50.70703125 C-22.75375 50.70703125 -23.41375 50.70703125 -24.09375 50.70703125 C-24.31160156 51.38121094 -24.52945313 52.05539062 -24.75390625 52.75 C-26.50704043 56.61916203 -28.93262533 59.67943343 -31.53125 63.01953125 C-35.69635141 68.46991772 -39.73602113 73.97214703 -43.59375 79.64453125 C-47.3598976 85.17843473 -51.16436216 90.68042339 -55.03125 96.14453125 C-55.53011719 96.84956787 -56.02898437 97.55460449 -56.54296875 98.28100586 C-57.55426473 99.70949401 -58.5658212 101.13779777 -59.57763672 102.56591797 C-62.08718928 106.11000428 -64.59012033 109.65875975 -67.09375 113.20703125 C-68.0911267 114.61980517 -69.08852255 116.03256558 -70.0859375 117.4453125 C-72.11305446 120.31695147 -74.13896664 123.18943542 -76.1640625 126.0625 C-76.67582031 126.78824219 -77.18757812 127.51398438 -77.71484375 128.26171875 C-78.66310609 129.60652716 -79.61106486 130.95154972 -80.55859375 132.296875 C-81.49778648 133.62852578 -82.46537025 134.94043019 -83.45458984 136.23535156 C-85.26104882 138.7962855 -85.26104882 138.7962855 -86.62744141 142.31152344 C-88.694394 146.69806774 -90.83171327 150.20175974 -95.09375 152.70703125 C-104.17861224 154.95273071 -113.84953475 154.09259454 -123.1305542 153.66833496 C-126.62231017 153.52402306 -130.11548465 153.46095381 -133.609375 153.390625 C-140.44099232 153.24133458 -147.26695671 153.00305618 -154.09375 152.70703125 C-152.99164714 150.96261842 -151.88788898 149.21925133 -150.78344727 147.47631836 C-150.16897232 146.50536728 -149.55449738 145.5344162 -148.92140198 144.53404236 C-146.42674431 140.6753072 -143.75453794 136.9686352 -141.03125 133.26953125 C-136.31157361 126.79856304 -131.67025411 120.28002253 -127.09375 113.70703125 C-122.6349826 107.30618457 -118.12080447 100.95222308 -113.53125 94.64453125 C-109.06786462 88.50754568 -104.7305368 82.29810147 -100.46875 76.01953125 C-96.1604821 69.67330885 -91.75038202 63.42771356 -87.18481445 57.2644043 C-83.78006714 52.66291141 -80.45143767 48.01256229 -77.15625 43.33203125 C-76.65947754 42.62651123 -76.16270508 41.92099121 -75.65087891 41.1940918 C-73.61195465 38.29523327 -71.57578046 35.39445519 -69.54101562 32.49267578 C-66.07548271 27.55200857 -62.59370639 22.62337042 -59.09375 17.70703125 C-58.67464355 17.1145459 -58.25553711 16.52206055 -57.82373047 15.91162109 C-43.39473272 -4.39911183 -23.02651562 -14.21973259 0 0 Z " fill="#FFFFFF" transform="translate(696.09375,832.29296875)"/>
<path d="M0 0 C16.5 0 33 0 50 0 C50 18.48 50 36.96 50 56 C80.36 56 110.72 56 142 56 C142 37.52 142 19.04 142 0 C158.17 0 174.34 0 191 0 C191 51.81 191 103.62 191 157 C174.83 157 158.66 157 142 157 C142 137.2 142 117.4 142 97 C111.64 97 81.28 97 50 97 C50 116.8 50 136.6 50 157 C33.5 157 17 157 0 157 C0 105.19 0 53.38 0 0 Z " fill="#FFFFFF" transform="translate(1044,828)"/>
<path d="M0 0 C2.32436624 0.01359791 4.64876022 0.02303081 6.97315979 0.02850342 C13.0914524 0.05529917 19.20741623 0.14377033 25.32489014 0.24365234 C30.27824317 0.31411325 35.23135422 0.34056237 40.18511868 0.36449051 C46.14438789 0.3943179 52.10342027 0.44453208 58.0625 0.5 C59.17880735 0.50982155 60.29511471 0.5196431 61.44524956 0.52976227 C94.58108554 0.87120837 94.58108554 0.87120837 108.50390625 5.296875 C109.20459229 5.51303467 109.90527832 5.72919434 110.62719727 5.9519043 C126.5959366 11.10340675 139.58859811 21.2027363 147.44140625 36.109375 C153.73363092 49.58092488 154.0995341 65.10832031 149.625 79.2109375 C146.99412818 86.07030626 143.60154105 91.64888244 138.62890625 97.046875 C138.00628906 97.72363281 137.38367188 98.40039062 136.7421875 99.09765625 C116.03047747 119.41485752 84.28115391 119.40724857 57.203125 119.2421875 C55.34983984 119.23844174 53.49655265 119.2356022 51.64326477 119.23361206 C46.8446981 119.22609833 42.04625909 119.20656073 37.2477417 119.1842041 C31.44784939 119.15980994 25.64791359 119.15090611 19.84798431 119.13929749 C11.10820376 119.12012478 2.36870141 119.08171804 -6.37109375 119.046875 C-6.37109375 131.916875 -6.37109375 144.786875 -6.37109375 158.046875 C-22.54109375 158.046875 -38.71109375 158.046875 -55.37109375 158.046875 C-55.37109375 131.646875 -55.37109375 105.246875 -55.37109375 78.046875 C-40.71058594 77.97339844 -40.71058594 77.97339844 -25.75390625 77.8984375 C-19.55598082 77.86304519 -13.35806466 77.82716148 -7.16015625 77.7890625 C2.67380649 77.72870361 12.50775184 77.67033048 22.34179688 77.625 C29.50475344 77.59197278 36.66763398 77.55208294 43.83050644 77.50408494 C47.62025541 77.47892619 51.40995465 77.45711408 55.19976425 77.44353104 C58.77354229 77.43061355 62.34714882 77.40845696 65.92083168 77.37949181 C67.84402264 77.36622923 69.76727219 77.36251336 71.69050598 77.35917664 C85.58647424 77.25862407 85.58647424 77.25862407 97.62890625 71.046875 C101.12468974 67.06891447 102.00002603 63.48579096 101.90234375 58.171875 C101.3415059 53.81336367 99.44395501 50.46622593 95.98046875 47.7578125 C90.64310329 44.51810158 85.79248714 43.92679046 79.67472839 43.88865662 C77.88482483 43.87397339 77.88482483 43.87397339 76.0587616 43.85899353 C74.75828384 43.85323807 73.45780609 43.8474826 72.11791992 43.84155273 C70.7280346 43.8319676 69.33815215 43.82195715 67.94827271 43.81155396 C64.18217841 43.78456761 60.41607167 43.76352419 56.64993453 43.74355197 C52.71144971 43.72165364 48.773003 43.6942838 44.83454895 43.66749573 C37.37967522 43.61762079 29.92478028 43.57266271 22.46986514 43.52947336 C13.98137286 43.48005651 5.49291882 43.4251549 -2.99553645 43.36979377 C-20.45402018 43.25605356 -37.91253944 43.14919724 -55.37109375 43.046875 C-53.53517892 39.1794364 -51.10119815 35.99702332 -48.43359375 32.671875 C-47.43868812 31.41936135 -46.44389981 30.1667545 -45.44921875 28.9140625 C-44.93939453 28.27436523 -44.42957031 27.63466797 -43.90429688 26.97558594 C-41.48183213 23.92821786 -39.08388708 20.86171411 -36.68359375 17.796875 C-35.42790859 16.19375838 -34.17617429 14.59884373 -32.86262512 13.04257202 C-31.27467987 11.0510708 -31.27467987 11.0510708 -30.16921997 8.54980469 C-23.73947418 -2.75469541 -11.37355505 -0.23837859 0 0 Z " fill="#FFFFFF" transform="translate(139.37109375,826.953125)"/>
<path d="M0 0 C4.62 0 9.24 0 14 0 C14.00808685 1.26089447 14.01617371 2.52178894 14.02450562 3.82089233 C14.10186233 15.68157415 14.18957476 27.54213976 14.28752708 39.40266991 C14.33755438 45.50084517 14.38388372 51.59900256 14.421875 57.69726562 C14.45864667 63.57822222 14.50498417 69.45903158 14.55806351 75.33986282 C14.57665075 77.5877996 14.59174254 79.83576799 14.60334396 82.08375168 C14.62013251 85.22314406 14.64914927 88.362196 14.68115234 91.50146484 C14.68331253 92.43869888 14.68547272 93.37593292 14.68769836 94.34156799 C14.70444359 95.62043633 14.70444359 95.62043633 14.7215271 96.92514038 C14.72705786 97.66810553 14.73258862 98.41107067 14.73828697 99.17654991 C14.84987487 101.24952508 14.84987487 101.24952508 17 103 C18.90821061 103.35513379 18.90821061 103.35513379 21 103.3125 C22.051875 103.33763672 22.051875 103.33763672 23.125 103.36328125 C23.74375 103.24339844 24.3625 103.12351562 25 103 C27.2543598 99.6184603 27.26628727 98.39531129 27.31884766 94.42700195 C27.33871735 93.28604568 27.35858704 92.14508942 27.37905884 90.96955872 C27.39061005 89.73823715 27.40216125 88.50691559 27.4140625 87.23828125 C27.43342865 85.97735153 27.4527948 84.71642181 27.4727478 83.4172821 C27.52243737 80.06852419 27.56369435 76.71987681 27.60089111 73.37097168 C27.64093081 69.95229144 27.69202326 66.53377839 27.7421875 63.11523438 C27.83832574 56.41025447 27.92232972 49.70521824 28 43 C32.62 43 37.24 43 42 43 C42.029729 45.61977783 42.029729 45.61977783 42.06005859 48.29248047 C42.12776724 54.05616049 42.20453761 59.81968125 42.28752708 65.58315849 C42.33752173 69.07834766 42.38385113 72.57350614 42.421875 76.06884766 C42.46572544 80.08515707 42.52538959 84.10109487 42.5859375 88.1171875 C42.59748871 89.37554413 42.60903992 90.63390076 42.62094116 91.9303894 C42.64081085 93.09144196 42.66068054 94.25249451 42.68115234 95.44873047 C42.69447601 96.47465302 42.70779968 97.50057556 42.7215271 98.55758667 C42.7636954 101.17866403 42.7636954 101.17866403 45 103 C46.90821061 103.35513379 46.90821061 103.35513379 49 103.3125 C50.051875 103.33763672 50.051875 103.33763672 51.125 103.36328125 C51.74375 103.24339844 52.3625 103.12351562 53 103 C55.2543598 99.6184603 55.26628727 98.39531129 55.31884766 94.42700195 C55.33871735 93.28604568 55.35858704 92.14508942 55.37905884 90.96955872 C55.39061005 89.73823715 55.40216125 88.50691559 55.4140625 87.23828125 C55.43342865 85.97735153 55.4527948 84.71642181 55.4727478 83.4172821 C55.52243737 80.06852419 55.56369435 76.71987681 55.60089111 73.37097168 C55.64093081 69.95229144 55.69202326 66.53377839 55.7421875 63.11523438 C55.83832574 56.41025447 55.92232972 49.70521824 56 43 C60.62 43 65.24 43 70 43 C70.029729 45.61977783 70.029729 45.61977783 70.06005859 48.29248047 C70.12776724 54.05616049 70.20453761 59.81968125 70.28752708 65.58315849 C70.33752173 69.07834766 70.38385113 72.57350614 70.421875 76.06884766 C70.46572544 80.08515707 70.52538959 84.10109487 70.5859375 88.1171875 C70.59748871 89.37554413 70.60903992 90.63390076 70.62094116 91.9303894 C70.64081085 93.09144196 70.66068054 94.25249451 70.68115234 95.44873047 C70.69447601 96.47465302 70.70779968 97.50057556 70.7215271 98.55758667 C70.7636954 101.17866403 70.7636954 101.17866403 73 103 C75.66242821 103.46290221 75.66242821 103.46290221 78.625 103.625 C80.12933594 103.73714844 80.12933594 103.73714844 81.6640625 103.8515625 C82.82035156 103.92503906 82.82035156 103.92503906 84 104 C83.99000725 103.1146331 83.99000725 103.1146331 83.97981262 102.21138 C83.91339698 96.06325736 83.8681735 89.91523679 83.83520508 83.7668457 C83.82012692 81.47285828 83.7996613 79.17889963 83.77368164 76.88500977 C83.73725642 73.58602795 83.72026369 70.2874276 83.70703125 66.98828125 C83.69154739 65.96414627 83.67606354 64.94001129 83.66011047 63.88484192 C83.65863408 57.62581174 84.20621247 53.93281488 88.6484375 49.26953125 C94.49281713 44.33750953 98.71574429 42.55138486 106.4453125 42.7578125 C113.52806662 43.42926625 117.77424032 46.21424507 122.65234375 51.28125 C125.02570935 54.30815105 125.12323167 57.04873443 125.11352539 60.74682617 C125.11341209 62.18798042 125.11341209 62.18798042 125.11329651 63.6582489 C125.10813522 64.69270645 125.10297394 65.727164 125.09765625 66.79296875 C125.0962413 67.85413406 125.09482635 68.91529938 125.09336853 70.00862122 C125.08776606 73.40160935 125.07521314 76.79453177 125.0625 80.1875 C125.05748532 82.48632717 125.05292236 84.78515538 125.04882812 87.08398438 C125.03779583 92.72267872 125.0210553 98.36133466 125 104 C126.48206495 103.745504 127.96068615 103.47088238 129.4375 103.1875 C130.67306641 102.96126953 130.67306641 102.96126953 131.93359375 102.73046875 C132.95646484 102.36888672 132.95646484 102.36888672 134 102 C135.02406112 98.92781664 135.1546536 96.73987825 135.20532227 93.51879883 C135.22526749 92.39786331 135.24521271 91.2769278 135.26576233 90.12202454 C135.28247482 88.91257675 135.29918732 87.70312897 135.31640625 86.45703125 C135.3475779 84.59893074 135.3475779 84.59893074 135.37937927 82.70329285 C135.43371797 79.41374744 135.48395951 76.12417274 135.53222656 72.83453369 C135.58250646 69.47622186 135.63815861 66.11799954 135.69335938 62.75976562 C135.80053051 56.1732462 135.90180476 49.58665911 136 43 C140.29 43 144.58 43 149 43 C149.02505615 44.67545898 149.0501123 46.35091797 149.07592773 48.07714844 C149.17002202 54.28686313 149.27023799 60.4964665 149.37231445 66.70605469 C149.41617963 69.39482764 149.4577294 72.08362165 149.49731445 74.77246094 C149.5550365 78.63484961 149.61872582 82.49710056 149.68359375 86.359375 C149.70866249 88.16580475 149.70866249 88.16580475 149.73423767 90.00872803 C149.75418289 91.12958801 149.77412811 92.250448 149.79467773 93.40527344 C149.81022202 94.39122498 149.8257663 95.37717651 149.84178162 96.39300537 C149.98408369 98.73774398 150.33704501 100.75417171 151 103 C152.45823212 103.0270043 153.91660675 103.04639787 155.375 103.0625 C156.18710938 103.07410156 156.99921875 103.08570313 157.8359375 103.09765625 C160.04937142 103.14466334 160.04937142 103.14466334 162 102 C162.90482379 99.28552863 163.13344416 97.67322283 163.15821838 94.8808136 C163.1680072 94.04368835 163.17779602 93.20656311 163.18788147 92.34407043 C163.19363693 91.42913315 163.1993924 90.51419586 163.20532227 89.5715332 C163.21522186 88.60549164 163.22512146 87.63945007 163.23532104 86.64413452 C163.2669453 83.44637515 163.29169722 80.24860092 163.31640625 77.05078125 C163.33697497 74.83546052 163.35797142 72.62014372 163.37937927 70.40483093 C163.43460837 64.57037539 163.484014 58.73588437 163.53222656 52.90136719 C163.58243543 46.94918659 163.63812471 40.99705758 163.69335938 35.04492188 C163.80095122 23.36332531 163.90239396 11.68168397 164 0 C168.29 0 172.58 0 177 0 C177.09268116 13.5866168 177.16375576 27.17315839 177.20724869 40.76002693 C177.22812315 47.06897269 177.2564389 53.37770216 177.30175781 59.68652344 C177.34521956 65.77491253 177.36913817 71.86309358 177.37950897 77.95162582 C177.38689966 80.27446645 177.40133188 82.5972957 177.42292023 84.92004776 C177.45195768 88.17367406 177.45595573 91.42644075 177.45410156 94.68017578 C177.46848267 95.64043167 177.48286377 96.60068756 177.49768066 97.59004211 C177.46279277 103.2479195 176.80804459 106.52558317 173 111 C166.76312556 116.75711487 161.33289321 117.35533181 153.08203125 117.28125 C150 117 150 117 146.75 115.3125 C145.8425 114.879375 144.935 114.44625 144 114 C142.76531982 114.45971191 141.53063965 114.91942383 140.25854492 115.39306641 C133.67626671 117.73738517 127.01834792 117.43311028 120.11328125 117.3984375 C118.6832006 117.40046267 117.25312097 117.40337779 115.82304382 117.40713501 C112.84180767 117.41153329 109.86084302 117.40520582 106.87963867 117.39111328 C103.06998134 117.37397564 99.2609561 117.38390676 95.4513216 117.40183067 C92.50438209 117.41269665 89.55759132 117.40921016 86.6106472 117.4014473 C85.20610668 117.39945547 83.80155237 117.40186858 82.39702797 117.40888596 C80.4330638 117.41655134 78.4690518 117.40278584 76.50512695 117.38818359 C75.39087845 117.38579681 74.27662994 117.38341003 73.12861633 117.38095093 C69.560883 116.94653163 67.14874377 115.67927123 64 114 C61.86347717 114.27099849 61.86347717 114.27099849 59.9375 115.3125 C54.05826761 117.61436895 48.23751944 117.67096823 42 117 C40.9275 116.443125 39.855 115.88625 38.75 115.3125 C36.19943738 113.73791601 36.19943738 113.73791601 34.10546875 114.46875 C32.6139759 115.04922289 31.12312548 115.63134833 29.6328125 116.21484375 C23.44034213 118.06155969 16.55831785 117.91368495 10.5 115.75 C9.675 115.1725 8.85 114.595 8 114 C7.113125 113.401875 6.22625 112.80375 5.3125 112.1875 C1.34290351 108.43247629 -0.15663783 104.73284204 -0.36076355 99.33023071 C-0.36941354 97.477486 -0.36159017 95.62461839 -0.34057617 93.77197266 C-0.34101425 92.75672516 -0.34145233 91.74147766 -0.34190369 90.69546509 C-0.33981953 87.35146622 -0.31650551 84.00797341 -0.29296875 80.6640625 C-0.28737148 78.340935 -0.283102 76.01780395 -0.28010559 73.69467163 C-0.26866718 67.58886896 -0.23920834 61.48328135 -0.20599365 55.37756348 C-0.17527131 49.14366566 -0.16159561 42.909733 -0.14648438 36.67578125 C-0.11433792 24.45042649 -0.06315346 12.22523115 0 0 Z M98.38793945 60.02758789 C96.62622047 63.80048651 96.58658069 67.14453186 96.63671875 71.22265625 C96.63622025 72.00515244 96.63572174 72.78764862 96.63520813 73.59385681 C96.63754099 75.24204051 96.64722295 76.89022828 96.66381836 78.53833008 C96.68745571 81.05777887 96.68436795 83.57617124 96.67773438 86.09570312 C96.68331033 87.70052713 96.69041969 89.30534668 96.69921875 90.91015625 C96.69830734 91.66128189 96.69739594 92.41240753 96.69645691 93.18629456 C96.74679545 96.90573533 96.80073723 99.90472331 99 103 C102.04983996 104.52491998 104.6423369 104.23562548 108 104 C110.61593153 102.16884793 110.96989455 101.09031634 112 98 C112.12059347 95.39993181 112.18807427 92.82744924 112.203125 90.2265625 C112.20882507 89.46580414 112.21452515 88.70504578 112.22039795 87.92123413 C112.22983748 86.31241238 112.23637778 84.70357138 112.24023438 83.09472656 C112.24993701 80.64093085 112.2809678 78.18797411 112.3125 75.734375 C112.31903085 74.16927579 112.324281 72.60417061 112.328125 71.0390625 C112.3404718 70.30869781 112.3528186 69.57833313 112.36553955 68.82583618 C112.34623835 64.38390455 111.78022776 61.51186664 109 58 C106.84635568 57.21468288 106.84635568 57.21468288 104.5 57.375 C103.7265625 57.36210938 102.953125 57.34921875 102.15625 57.3359375 C99.82141854 57.8327298 99.82141854 57.8327298 98.38793945 60.02758789 Z " fill="#FFFFFF" transform="translate(962,638)"/>
<path d="M0 0 C7.80147089 2.93183252 15.19876261 6.47805583 22.625 10.25 C24.93337193 11.41840709 27.24196513 12.58637714 29.55078125 13.75390625 C30.6588916 14.31480957 31.76700195 14.87571289 32.90869141 15.45361328 C35.52306739 16.7614207 38.14764739 18.03380678 40.79296875 19.27734375 C49.00471845 23.15522179 56.1629818 27.76720807 63.19091797 33.53271484 C66.7231629 36.39759906 70.34011161 39.15523324 73.9375 41.9375 C82.20469212 48.36609492 90.44030409 54.8344315 98.66796875 61.31347656 C99.79128999 62.19786292 100.91482753 63.08197461 102.03857422 63.96582031 C103.18159488 64.86523571 104.32384553 65.76563052 105.46533203 66.66699219 C108.77247188 69.27272866 112.103149 71.84259745 115.4609375 74.3828125 C126.93505017 83.10140237 137.0698651 92.2200595 146.42578125 103.20703125 C148.55617829 105.63346361 150.85469874 107.86685811 153.15844727 110.12719727 C154.93087528 111.92970228 156.58719127 113.7861694 158.234375 115.703125 C161.96371799 119.99226366 165.83764833 124.12812609 169.75 128.25 C174.36873893 133.13544888 178.970681 138.03147431 183.5 143 C187.95117584 147.88020484 192.46653533 152.69619595 197 157.5 C203.39519025 164.27869194 209.72972026 171.10557297 216 178 C216.96483491 179.05990388 217.92967884 180.11979955 218.89453125 181.1796875 C221.26491189 183.78474316 223.63309598 186.39178472 226 189 C225.67 189.99 225.34 190.98 225 192 C220.68948535 191.4373335 217.98707665 189.927651 214.4140625 187.4921875 C213.3297998 186.76008057 212.24553711 186.02797363 211.12841797 185.27368164 C210.27204742 184.68733444 210.27204742 184.68733444 209.39837646 184.08914185 C206.98985186 182.44014595 204.56952308 180.80886124 202.14981079 179.17634583 C200.91039873 178.33985445 199.6716123 177.50243537 198.43344116 176.66410828 C192.62272526 172.73204957 186.75830247 168.8850468 180.875 165.0625 C179.93205078 164.44906738 178.98910156 163.83563477 178.01757812 163.20361328 C175.34623674 161.46724138 172.67348892 159.73306311 170 158 C169.21947266 157.49388184 168.43894531 156.98776367 167.63476562 156.46630859 C163.42335423 153.73658828 159.20893396 151.01155696 154.99316406 148.28857422 C153.01245505 147.00805215 151.03332596 145.72512498 149.0546875 144.44140625 C139.54071573 138.27136843 129.99334701 132.15469636 120.43823242 126.04858398 C113.87761661 121.85235079 107.33573025 117.62908129 100.8125 113.375 C93.98054823 108.92316344 87.12735672 104.50639378 80.25 100.125 C79.35200684 99.55185059 78.45401367 98.97870117 77.52880859 98.38818359 C72.53051653 95.20841719 67.50654917 92.07728543 62.44921875 88.9921875 C61.36286133 88.32558105 60.27650391 87.65897461 59.15722656 86.97216797 C57.06184092 85.68868865 54.96116338 84.41379599 52.85449219 83.14892578 C43.71970079 77.54117026 39.09332189 70.81945021 33.6875 61.75 C32.44600851 59.68838279 31.2037925 57.62720175 29.9609375 55.56640625 C29.31479492 54.49277832 28.66865234 53.41915039 28.00292969 52.31298828 C24.63992407 46.7503376 21.22403866 41.22046205 17.8125 35.6875 C17.14508789 34.59961182 16.47767578 33.51172363 15.79003906 32.39086914 C12.73420154 27.41216878 9.66039804 22.44935588 6.5078125 17.53125 C5.72313599 16.29242065 5.72313599 16.29242065 4.92260742 15.02856445 C3.96354324 13.5167337 2.99309204 12.01203939 2.0090332 10.51635742 C-1.08662324 5.60268352 -1.08662324 5.60268352 -0.60913086 2.28051758 C-0.40811768 1.52794678 -0.20710449 0.77537598 0 0 Z " fill="#FFFFFF" transform="translate(363,366)"/>
<path d="M0 0 C8.59061102 2.54959441 16.50293631 6.39669465 24.5625 10.25 C27.29146386 11.55006294 30.02218341 12.84637035 32.75390625 14.140625 C33.42856934 14.46153107 34.10323242 14.78243713 34.79833984 15.11306763 C38.2967811 16.76646836 41.80970692 18.3642313 45.36914062 19.88232422 C46.08319565 20.18740906 46.79725067 20.4924939 47.53294373 20.80682373 C48.88108581 21.37830776 50.23218195 21.94289847 51.58680725 22.49884033 C57.28277883 24.909238 61.82582707 28.24745875 66.54296875 32.20703125 C70.46308104 35.42150035 74.56650189 38.36270048 78.6875 41.3125 C79.44772461 41.85914307 80.20794922 42.40578613 80.99121094 42.96899414 C83.32625272 44.64770383 85.66302979 46.32397628 88 48 C97.48460654 54.80946111 106.92535127 61.66267327 116.24707031 68.69384766 C122.12941688 73.12096428 128.11176392 77.39653061 134.11474609 81.65771484 C144.77113106 89.24497262 155.33128419 96.96335972 165.8515625 104.73779297 C174.18696175 110.89085199 182.58806939 116.95216701 191 123 C190.67 124.32 190.34 125.64 190 127 C185.2031394 125.50203137 180.70538331 123.6104669 176.140625 121.53515625 C175.37561172 121.19018097 174.61059845 120.84520569 173.82240295 120.48977661 C171.29700312 119.3501299 168.77351033 118.20632376 166.25 117.0625 C164.46780818 116.25731128 162.68549808 115.45238433 160.90307617 114.64770508 C156.21266267 112.52927973 151.52388674 110.40725631 146.83563232 108.28405762 C142.2360076 106.20121242 137.63553428 104.1202432 133.03515625 102.0390625 C127.67850389 99.61562685 122.32198747 97.19189288 116.96606445 94.7668457 C108.12951355 90.76662914 99.28983189 86.7739644 90.43408203 82.81640625 C88.13039153 81.78439408 85.82920779 80.74676513 83.53076172 79.703125 C77.90541864 77.15458247 72.27033709 74.68371638 66.55300903 72.35043335 C36.98081792 60.24918517 36.98081792 60.24918517 29.24755859 46.14501953 C26.88697213 42.08628907 23.95333493 38.42736163 21.125 34.6875 C19.95333417 33.09811693 18.78407645 31.50695595 17.6171875 29.9140625 C15.11178414 26.50534111 12.59477801 23.10556445 10.0703125 19.7109375 C9.43077637 18.84895752 8.79124023 17.98697754 8.13232422 17.09887695 C6.90460864 15.44456604 5.67457244 13.79197406 4.44189453 12.14135742 C3.88872559 11.39474854 3.33555664 10.64813965 2.765625 9.87890625 C2.27868164 9.2247876 1.79173828 8.57066895 1.29003906 7.89672852 C-0.00260376 5.99617172 -1.02226994 4.07753208 -2 2 C-1.34 1.34 -0.68 0.68 0 0 Z " fill="#FFFFFF" transform="translate(426,474)"/>
<path d="M0 0 C2.91004189 0.69007048 5.19633093 1.3988181 7.8984375 2.5546875 C28.99094555 11.52965899 52.2983859 12.56322392 74.87109375 14.91796875 C74.76953125 17.20166016 74.76953125 17.20166016 73.87109375 19.91796875 C71.70851306 21.35254812 69.8455381 22.35369824 67.49609375 23.37890625 C66.50020233 23.840159 66.50020233 23.840159 65.48419189 24.31072998 C63.28756479 25.32277892 61.07987735 26.30776912 58.87109375 27.29296875 C57.3374719 27.99300071 55.80460266 28.69468364 54.27246094 29.39794922 C51.08417069 30.85739535 47.89104964 32.30540885 44.69335938 33.74414062 C40.03976049 35.83837722 35.39957473 37.9610199 30.76171875 40.08984375 C25.26622918 42.60761276 19.76864817 45.12061846 14.26171875 47.61328125 C12.62251465 48.35602295 12.62251465 48.35602295 10.95019531 49.11376953 C10.34274475 49.38126007 9.73529419 49.64875061 9.10943604 49.92434692 C7.34527156 50.70747663 5.59044931 51.51165224 3.83929443 52.32345581 C-4.78973383 56.21195971 -13.40677551 58.7441795 -22.64453125 60.78515625 C-24.07729761 61.1117859 -25.50980868 61.43953716 -26.94207764 61.76834106 C-30.6604909 62.61859136 -34.38235166 63.45264122 -38.10516357 64.28338623 C-41.16033877 64.96810042 -44.21277851 65.66457264 -47.26517105 66.36157036 C-50.91160422 67.19403507 -54.55912176 68.02168729 -58.20703125 68.84765625 C-59.24682507 69.08316004 -59.24682507 69.08316004 -60.30762482 69.32342148 C-62.25691131 69.76360419 -64.20704877 70.20001348 -66.15722656 70.63623047 C-67.26527649 70.88460663 -68.37332642 71.13298279 -69.51495361 71.3888855 C-72.12890625 71.91796875 -72.12890625 71.91796875 -74.12890625 71.91796875 C-74.875 70.1875 -74.875 70.1875 -75.12890625 67.91796875 C-73.5390625 65.8046875 -73.5390625 65.8046875 -71.19140625 63.60546875 C-70.35738281 62.81527344 -69.52335937 62.02507813 -68.6640625 61.2109375 C-65.86252748 58.67703757 -63.02812053 56.18872384 -60.16015625 53.73046875 C-57.89252053 51.70703995 -55.76313675 49.58143528 -53.62890625 47.41796875 C-50.90061218 44.65236467 -48.14373791 42.00509844 -45.19140625 39.48046875 C-42.01854705 36.76177627 -39.06552243 33.890452 -36.12890625 30.91796875 C-32.58658426 27.33238176 -28.95334964 23.96905213 -25.125 20.6953125 C-22.0704644 17.97552053 -19.24216968 15.03972026 -16.37109375 12.12890625 C-13.63637784 9.43230485 -10.77816698 6.91548715 -7.85546875 4.42578125 C-6.08119131 2.98707907 -6.08119131 2.98707907 -4.83984375 1.16015625 C-3.12890625 -0.08203125 -3.12890625 -0.08203125 0 0 Z " fill="#FFFFFF" transform="translate(509.12890625,633.08203125)"/>
<path d="M0 0 C2.26111309 3.39166964 2.62704412 5.64267034 3.2890625 9.64453125 C3.39721283 10.29193771 3.50536316 10.93934418 3.61679077 11.60636902 C3.84373403 12.9750401 4.06709195 14.34430985 4.28710938 15.71411133 C4.62235224 17.79605672 4.9703985 19.87555403 5.3203125 21.95507812 C7.87486355 37.47721119 7.87486355 37.47721119 5.9609375 40.80859375 C5.43757812 41.34613281 4.91421875 41.88367188 4.375 42.4375 C3.42367187 43.44490234 3.42367187 43.44490234 2.453125 44.47265625 C1.64359375 45.30667969 0.8340625 46.14070312 0 47 C-1.68619728 48.79752007 -3.36442385 50.60231609 -5.04296875 52.40698242 C-6.88391313 54.38457472 -8.73078828 56.35650488 -10.578125 58.328125 C-14.00927758 61.99927077 -17.37464051 65.72562187 -20.72265625 69.47265625 C-22.44837464 71.38781885 -24.18415607 73.29028968 -25.93359375 75.18359375 C-26.44575439 75.73805176 -26.95791504 76.29250977 -27.4855957 76.86376953 C-28.53578271 77.99509036 -29.59031417 79.12239397 -30.64916992 80.24560547 C-32.85715803 82.60037441 -34.91793322 84.88578152 -36.8046875 87.51171875 C-42.61734416 95.47978638 -51.36935511 98.03442071 -60.23388672 101.49951172 C-64.83305906 103.31433385 -69.38394123 105.24361171 -73.94140625 107.16015625 C-76.60844101 108.27613405 -79.27609158 109.39062332 -81.94406128 110.50436401 C-83.73103987 111.25132346 -85.51711459 112.00044897 -87.30227661 112.7517395 C-89.83571499 113.81533848 -92.37408274 114.86619877 -94.9140625 115.9140625 C-95.68508804 116.24064346 -96.45611359 116.56722443 -97.25050354 116.90370178 C-102.65750702 119.11416433 -102.65750702 119.11416433 -106 118 C-105.43536021 114.57064362 -104.48238042 113.18848194 -101.78125 111.0390625 C-101.10457275 110.4920166 -100.42789551 109.9449707 -99.73071289 109.38134766 C-98.99457764 108.80175293 -98.25844238 108.2221582 -97.5 107.625 C-95.94637821 106.3752938 -94.39299979 105.125285 -92.83984375 103.875 C-92.0391748 103.235625 -91.23850586 102.59625 -90.41357422 101.9375 C-86.59667365 98.87347786 -82.83243042 95.74646337 -79.0625 92.625 C-74.58337351 88.93196046 -70.09574553 85.25159642 -65.5625 81.625 C-64.80066406 80.99980469 -64.03882813 80.37460937 -63.25390625 79.73046875 C-61 78 -61 78 -58.52734375 76.55078125 C-47.60885479 69.58117392 -44.18887364 55.43055186 -39.81445312 43.86572266 C-34.9082866 30.92479006 -30.91186174 21.79895 -19.01806641 14.32470703 C-15.0513938 11.72088831 -11.36741871 8.72479359 -7.625 5.8125 C-6.16023978 4.69219645 -4.69421541 3.57354255 -3.2265625 2.45703125 C-2.60346191 1.98241455 -1.98036133 1.50779785 -1.33837891 1.01879883 C-0.89671387 0.68259521 -0.45504883 0.3463916 0 0 Z " fill="#FFFFFF" transform="translate(699,616)"/>
<path d="M0 0 C10.86735385 0 22.45092001 1.19033227 30.9375 8.71875 C38.23862913 16.38493559 40.38573923 26.11101567 40.2109375 36.51171875 C39.10714619 49.5323681 32.01843875 59.01631438 23 68 C17.04428904 73 17.04428904 73 14 73 C14.59283199 74.94099815 15.19970252 76.87771245 15.8125 78.8125 C16.14894531 79.89144531 16.48539063 80.97039062 16.83203125 82.08203125 C17.92760475 84.81913293 18.75283788 86.16492491 21 88 C21.03867188 86.58847656 21.03867188 86.58847656 21.078125 85.1484375 C21.48083004 76.30723139 21.94181435 72.05818565 28.1875 65.8125 C32.68160155 62.91630122 37.61998264 61 43 61 C43 65.62 43 70.24 43 75 C40.03 75.99 40.03 75.99 37 77 C35.94363012 80.16910963 35.93775867 82.8464599 35.91186523 86.15869141 C35.77231677 95.2579903 34.55662351 101.18658966 28 108 C17.70385544 104.41322833 9.61685385 99.61886221 4 90 C1.7119896 84.81622644 0.59700062 79.61180584 0 74 C-3.63 74 -7.26 74 -11 74 C-11 69.71 -11 65.42 -11 61 C-7.37 61 -3.74 61 0 61 C0 40.87 0 20.74 0 0 Z M14 16 C14 29.2 14 42.4 14 56 C18.7138119 51.31309053 18.7138119 51.31309053 21.75 45.9375 C22.36101562 44.68259766 22.36101562 44.68259766 22.984375 43.40234375 C25.46979852 37.52336119 26.46116688 30.74738919 24.09375 24.67578125 C21.18444391 19.63111909 19.70494231 18.85247115 14 16 Z " fill="#FFFFFF" transform="translate(1216,686)"/>
<path d="M0 0 C3.65862057 1.31231816 6.45359409 2.89389437 9.51953125 5.2734375 C10.79449463 6.25509888 10.79449463 6.25509888 12.09521484 7.2565918 C12.99191895 7.9556665 13.88862305 8.65474121 14.8125 9.375 C16.69623684 10.827313 18.58035542 12.27913099 20.46484375 13.73046875 C21.39796387 14.45153809 22.33108398 15.17260742 23.29248047 15.91552734 C27.13041183 18.8702846 30.99799668 21.78429689 34.875 24.6875 C35.49737549 25.15526855 36.11975098 25.62303711 36.76098633 26.10498047 C40.79862622 29.13087474 44.88530346 32.07972304 49 35 C49.804375 34.3915625 50.60875 33.783125 51.4375 33.15625 C60.57833566 26.31692005 69.98234278 19.93097891 79.52148438 13.66015625 C85.15748992 9.94475929 90.66538212 6.13837611 96 2 C97.32 2.66 98.64 3.32 100 4 C98.73109509 7.99339404 97.27287488 11.76101887 95.48828125 15.55078125 C94.98538574 16.62489258 94.48249023 17.69900391 93.96435547 18.80566406 C93.41924316 19.96291992 92.87413086 21.12017578 92.3125 22.3125 C91.13182807 24.83356944 89.95428152 27.3560917 88.77734375 29.87890625 C88.4706073 30.53595551 88.16387085 31.19300476 87.84783936 31.8699646 C84.30415437 39.47264399 80.83824293 47.1104282 77.375 54.75 C76.12124392 57.51439105 74.86730594 60.27869954 73.61328125 63.04296875 C73.30965668 63.71236481 73.0060321 64.38176086 72.69320679 65.07144165 C68.1596634 75.06172659 63.58076358 85.03129622 59 95 C58.34 95 57.68 95 57 95 C56.57702637 94.00258789 56.15405273 93.00517578 55.71826172 91.97753906 C54.1229856 88.21857285 52.52264666 84.46177878 50.92089844 80.70556641 C50.23302777 79.09057967 49.54646653 77.47503448 48.86132812 75.85888672 C41.62400728 57.55831971 41.62400728 57.55831971 30.6875 41.4375 C29.71793914 40.33795406 28.74919997 39.23768305 27.78125 38.13671875 C27.30816406 37.6061084 26.83507812 37.07549805 26.34765625 36.52880859 C24.39931518 34.31857096 22.54309024 32.03833051 20.6875 29.75 C17.94700108 26.38281712 15.19758516 23.02372471 12.43359375 19.67578125 C11.80557861 18.91491211 11.17756348 18.15404297 10.53051758 17.37011719 C9.2823077 15.85851184 8.03347028 14.34742443 6.78393555 12.83691406 C5.92022339 11.79035645 5.92022339 11.79035645 5.0390625 10.72265625 C4.52553223 10.10140869 4.01200195 9.48016113 3.48291016 8.84008789 C2.9935498 8.23285889 2.50418945 7.62562988 2 7 C1.42169434 6.32509521 0.84338867 5.65019043 0.24755859 4.95483398 C-0.16413574 4.30973877 -0.57583008 3.66464355 -1 3 C-0.67 2.01 -0.34 1.02 0 0 Z " fill="#FFFFFF" transform="translate(586,536)"/>
<path d="M0 0 C4.2199342 0.36594125 7.71381993 2.11914515 11.50390625 3.921875 C12.13063736 4.21790115 12.75736847 4.51392731 13.40309143 4.81892395 C15.45861048 5.79100644 17.51046656 6.77058402 19.5625 7.75 C21.0066925 8.4341591 22.45119562 9.11766287 23.89599609 9.80053711 C26.11009983 10.84709459 28.32401552 11.89402867 30.5369873 12.94297791 C37.38228851 16.18728861 44.25049943 19.3804923 51.125 22.5625 C71.14510393 31.84543813 91.1429314 41.17555215 111.11444092 50.56259155 C112.60359706 51.26245916 114.09289217 51.96203117 115.58233643 52.6612854 C122.76013794 56.03180661 129.93231508 59.40223791 137 63 C137 64.32 137 65.64 137 67 C128.04557265 65.62171954 119.10498428 64.1688032 110.16870117 62.67807007 C103.84831319 61.62671835 97.52409366 60.60346159 91.19580078 59.60107422 C83.83520291 58.43428058 76.48125943 57.23115028 69.13162327 55.99717808 C64.96538847 55.29893491 60.79785576 54.61633663 56.62332153 53.96939087 C52.61489593 53.34753738 48.61537962 52.68432651 44.6186657 51.9913044 C43.12568467 51.73978813 41.63014101 51.50297156 40.13232613 51.28205681 C28.66216836 49.57660709 28.66216836 49.57660709 24.62799072 45.75009155 C22.84611038 43.24025683 21.39324461 40.74115226 20 38 C19.32001953 36.96117676 18.64003906 35.92235352 17.93945312 34.85205078 C17.39224609 33.97532715 16.84503906 33.09860352 16.28125 32.1953125 C15.65863281 31.19886719 15.03601563 30.20242188 14.39453125 29.17578125 C13.76933594 28.16902344 13.14414062 27.16226563 12.5 26.125 C11.87480469 25.12597656 11.24960937 24.12695312 10.60546875 23.09765625 C6.2698737 16.14095611 2.09397068 9.10136748 -2 2 C-1.34 1.34 -0.68 0.68 0 0 Z " fill="#FFFFFF" transform="translate(480,551)"/>
<path d="M0 0 C0.13123182 14.70402097 -0.15159138 29.31950088 -1 44 C-9.7867136 46.44987809 -18.61652541 48.67887371 -27.5 50.75 C-28.43086426 50.97260498 -29.36172852 51.19520996 -30.32080078 51.42456055 C-31.21524902 51.62992432 -32.10969727 51.83528809 -33.03125 52.046875 C-33.82080078 52.23088867 -34.61035156 52.41490234 -35.42382812 52.60449219 C-41.92160335 53.60206572 -47.51495382 52.62571183 -53.77734375 51.03125 C-54.58869278 50.8314856 -55.40004181 50.63172119 -56.23597717 50.42590332 C-58.8051016 49.79151567 -61.37126231 49.1459549 -63.9375 48.5 C-65.68796672 48.06566271 -67.43861622 47.63206136 -69.18945312 47.19921875 C-73.46179673 46.14131346 -77.73152031 45.07338451 -82 44 C-82.33 42.35 -82.66 40.7 -83 39 C-73.33603399 34.32773075 -63.66954232 29.66071812 -54 25 C-52.96133789 24.49936035 -51.92267578 23.9987207 -50.85253906 23.48291016 C-39.49507091 18.01471617 -28.10385527 12.61973641 -16.68673706 7.27734375 C-15.31727228 6.63646691 -13.94806844 5.99503214 -12.57913208 5.35302734 C-10.67088168 4.45858514 -8.7614289 3.56676664 -6.8515625 2.67578125 C-5.74635254 2.15927002 -4.64114258 1.64275879 -3.50244141 1.1105957 C-1 0 -1 0 0 0 Z " fill="#FFFFFF" transform="translate(603,653)"/>
<path d="M0 0 C0.495 1.485 0.495 1.485 1 3 C-4.30060224 7.91100285 -9.60148264 12.73968012 -15.25 17.25 C-20.49997239 21.47997776 -25.39824067 26.02224216 -30.25878906 30.68847656 C-32.14848762 32.48655337 -34.07183272 34.24326589 -36 36 C-36.74975098 36.72010254 -37.49950195 37.44020508 -38.27197266 38.18212891 C-46.37938815 45.48175439 -55.28277659 48.73638178 -65.375 52.375 C-67.10045967 53.01493905 -68.82514405 53.65697214 -70.54907227 54.30102539 C-74.02097575 55.59511897 -77.49662218 56.87820135 -80.97607422 58.15185547 C-87.68562691 60.61211591 -94.36031693 63.16260129 -101.03619385 65.71246338 C-105.68666177 67.48585455 -110.34392853 69.24138584 -115 71 C-115.66 69.68 -116.32 68.36 -117 67 C-112.36578597 61.63537427 -107.61976149 56.4011397 -102.75 51.25 C-98.12289045 46.33337298 -93.50515072 41.40947388 -88.9375 36.4375 C-88.06351562 35.49003906 -87.18953125 34.54257812 -86.2890625 33.56640625 C-84.35320247 31.39599663 -82.58195172 29.17907215 -80.8125 26.875 C-77.79795794 23.40107738 -74.44063984 22.64723989 -70 22 C-67.98678374 21.90943357 -65.97198518 21.85108544 -63.95703125 21.81640625 C-42.39173162 21.22614025 -26.66114136 13.54330043 -8.21484375 2.82000732 C-3.31050983 0 -3.31050983 0 0 0 Z " fill="#FFFFFF" transform="translate(476,740)"/>
<path d="M0 0 C3.315559 0.60852863 5.28327425 1.75103235 7.90625 3.84375 C8.64335205 4.42560059 9.3804541 5.00745117 10.13989258 5.60693359 C10.91872803 6.23164551 11.69756348 6.85635742 12.5 7.5 C14.13871904 8.79503534 15.77804151 10.08930747 17.41796875 11.3828125 C18.21122559 12.0109082 19.00448242 12.63900391 19.82177734 13.28613281 C22.4547952 15.35784155 25.12436192 17.37542985 27.8125 19.375 C33.23986017 23.41744757 38.62138527 27.5179507 44 31.625 C51.05863193 37.01259855 58.13962815 42.36838027 65.25 47.6875 C73.45177793 53.8246842 81.60037194 60.02779942 89.72949219 66.26074219 C100.11862392 74.21904052 110.51956027 82.16220806 121 90 C127.43107826 94.81431272 133.84748727 99.64775369 140.25 104.5 C141.15621094 105.18320312 142.06242188 105.86640625 142.99609375 106.5703125 C143.84816406 107.21742188 144.70023438 107.86453125 145.578125 108.53125 C146.33512695 109.10423828 147.09212891 109.67722656 147.87207031 110.26757812 C152.00394582 113.63148228 154.95803101 117.19443412 157.890625 121.640625 C158.59960938 122.71054687 159.30859375 123.78046875 160.0390625 124.8828125 C160.77614363 126.00514137 161.51312153 127.12753806 162.25 128.25 C163.00217504 129.38830451 163.75477509 130.5263283 164.5078125 131.6640625 C166.34273903 134.43997699 168.17328817 137.21867574 170 140 C169.34 141.32 168.68 142.64 168 144 C163.07540499 141.31952423 158.7265576 138.39867581 154.375 134.875 C153.14766286 133.89517229 151.9197858 132.91602055 150.69140625 131.9375 C150.07668457 131.44636719 149.46196289 130.95523438 148.82861328 130.44921875 C146.0175956 128.22142156 143.16458981 126.04977193 140.3125 123.875 C134.43664844 119.37386274 128.70421174 114.71596614 123 110 C121.67619835 108.91485555 120.35194752 107.83025893 119.02734375 106.74609375 C111.57745943 100.64139816 104.18084992 94.48655222 96.8918457 88.19042969 C93.43455986 85.20947656 89.93021416 82.30198684 86.375 79.4375 C81.91429703 75.82053703 77.6818839 71.99536676 73.47998047 68.08569336 C70.2477385 65.09521683 66.93280519 62.26202716 63.5 59.5 C58.3925058 55.3874722 53.58326086 51.01718532 48.77734375 46.5625 C45.89306447 43.90133655 42.95662867 41.31300992 39.9921875 38.7421875 C37.63979365 36.68499601 35.31965034 34.59403085 33 32.5 C30.01937279 29.81016569 27.02754767 27.13689636 24 24.5 C20.97245233 21.86310364 17.98062721 19.18983431 15 16.5 C11.86544464 13.67455334 8.72650936 10.85495597 5.5625 8.0625 C4.94503906 7.51722656 4.32757813 6.97195313 3.69140625 6.41015625 C1.84382494 4.81877961 1.84382494 4.81877961 -1 3 C-0.67 2.01 -0.34 1.02 0 0 Z " fill="#FFFFFF" transform="translate(451,397)"/>
<path d="M0 0 C1.32 0 2.64 0 4 0 C5.34555806 5.22217441 6.66271767 10.45044135 7.95507812 15.68603516 C8.3977062 17.46267716 8.84777251 19.2374844 9.30566406 21.01025391 C13.96486467 39.08754535 13.96486467 39.08754535 11 48 C10.65829549 49.73672146 10.33199964 51.47653104 10.01953125 53.21875 C6.66921155 68.7690444 6.66921155 68.7690444 -0.07348633 73.52490234 C-2.66311325 75.08767048 -5.30111744 76.52092623 -7.9921875 77.90087891 C-11.37742443 79.75403268 -14.41100594 82.07213474 -17.5 84.375 C-21.84738747 87.57890748 -26.27700956 90.38804317 -31 93 C-31.66 92.34 -32.32 91.68 -33 91 C-32.57645838 84.60161298 -29.78595127 78.23260827 -27.54296875 72.2890625 C-27.20328568 71.37443741 -26.8636026 70.45981232 -26.5136261 69.51747131 C-25.41050741 66.55119651 -24.29915983 63.5880832 -23.1875 60.625 C-22.4226516 58.57417051 -21.65833336 56.52314323 -20.89453125 54.47192383 C-19.34824387 50.32125037 -17.79892939 46.17172516 -16.24755859 42.02294922 C-14.15719807 36.42811142 -12.08507905 30.82669416 -10.01953125 25.22265625 C-9.12789459 22.80688737 -8.23604595 20.39119685 -7.34414673 17.9755249 C-6.78255782 16.45336132 -6.22166204 14.93094183 -5.66146851 13.40826416 C-4.89148888 11.31677951 -4.11808192 9.22659519 -3.34375 7.13671875 C-2.69696289 5.38427856 -2.69696289 5.38427856 -2.03710938 3.59643555 C-1 1 -1 1 0 0 Z " fill="#FFFFFF" transform="translate(693,539)"/>
<path d="M0 0 C4.62 0 9.24 0 14 0 C14.06789254 7.84977085 14.12288318 15.69938001 14.15543652 23.54936409 C14.17106391 27.1948046 14.19224805 30.84003307 14.22631836 34.48535156 C14.25901717 38.00613349 14.27687501 41.52671201 14.28463173 45.04763412 C14.29283732 47.03842635 14.31623998 49.02913725 14.33988953 51.01980591 C14.34011612 52.24061859 14.34034271 53.46143127 14.34057617 54.71923828 C14.35056892 56.32474045 14.35056892 56.32474045 14.36076355 57.962677 C13.83457275 62.39275705 12.28402177 65.76516455 9.0625 68.86328125 C8.381875 69.34152344 7.70125 69.81976562 7 70.3125 C6.319375 70.80363281 5.63875 71.29476562 4.9375 71.80078125 C1.17295378 74.13085321 -1.98222159 74.12189125 -6.30737305 74.11352539 C-7.60849533 74.11344986 -8.90961761 74.11337433 -10.25016785 74.11329651 C-11.6706852 74.10818985 -13.09120217 74.10297385 -14.51171875 74.09765625 C-15.96474662 74.09579091 -17.41777511 74.09436756 -18.87080383 74.09336853 C-22.69306172 74.08955246 -26.51528155 74.07972993 -30.33752441 74.06866455 C-34.23868291 74.05843087 -38.13984757 74.05386671 -42.04101562 74.04882812 C-49.69402977 74.03810685 -57.3470047 74.02051741 -65 74 C-65 69.71 -65 65.42 -65 61 C-63.13230957 60.98018066 -61.26461914 60.96036133 -59.34033203 60.93994141 C-53.17751555 60.87223914 -47.01486458 60.7954694 -40.85223579 60.71247292 C-37.11490738 60.6624733 -33.37760774 60.61614389 -29.64013672 60.578125 C-26.03495675 60.54131805 -22.43001541 60.49497123 -18.82503891 60.44193649 C-17.44793752 60.42336798 -16.07078494 60.40826912 -14.69360733 60.39665604 C-12.76845599 60.37983626 -10.84343517 60.34966518 -8.91845703 60.31884766 C-7.82147491 60.30552399 -6.7244928 60.29220032 -5.5942688 60.2784729 C-2.8387819 60.25718157 -2.8387819 60.25718157 -1 58 C-0.66814656 55.45240753 -0.66814656 55.45240753 -0.68115234 52.44873047 C-0.66128265 51.28767792 -0.64141296 50.12662537 -0.62094116 48.9303894 C-0.60938995 47.67203278 -0.59783875 46.41367615 -0.5859375 45.1171875 C-0.56657135 43.83264679 -0.5472052 42.54810608 -0.5272522 41.22463989 C-0.47586059 37.80852465 -0.43627286 34.39236993 -0.39910889 30.97607422 C-0.35911302 27.49046001 -0.30800062 24.00501097 -0.2578125 20.51953125 C-0.16097015 13.6798013 -0.07761942 6.83997482 0 0 Z " fill="#FFFFFF" transform="translate(944,681)"/>
<path d="M0 0 C4.62 0 9.24 0 14 0 C14.00808685 1.26089447 14.01617371 2.52178894 14.02450562 3.82089233 C14.10186233 15.68157415 14.18957476 27.54213976 14.28752708 39.40266991 C14.33755438 45.50084517 14.38388372 51.59900256 14.421875 57.69726562 C14.45864667 63.57822222 14.50498417 69.45903158 14.55806351 75.33986282 C14.57665075 77.5877996 14.59174254 79.83576799 14.60334396 82.08375168 C14.62013251 85.22314406 14.64914927 88.362196 14.68115234 91.50146484 C14.68331253 92.43869888 14.68547272 93.37593292 14.68769836 94.34156799 C14.70444359 95.62043633 14.70444359 95.62043633 14.7215271 96.92514038 C14.72705786 97.66810553 14.73258862 98.41107067 14.73828697 99.17654991 C14.84987487 101.24952508 14.84987487 101.24952508 17 103 C18.32 103.33 19.64 103.66 21 104 C21 108.29 21 112.58 21 117 C14.35519081 117.39868855 10.74076525 115.84842308 5.3125 112.1875 C1.34290351 108.43247629 -0.15663783 104.73284204 -0.36076355 99.33023071 C-0.36941354 97.477486 -0.36159017 95.62461839 -0.34057617 93.77197266 C-0.34101425 92.75672516 -0.34145233 91.74147766 -0.34190369 90.69546509 C-0.33981953 87.35146622 -0.31650551 84.00797341 -0.29296875 80.6640625 C-0.28737148 78.340935 -0.283102 76.01780395 -0.28010559 73.69467163 C-0.26866718 67.58886896 -0.23920834 61.48328135 -0.20599365 55.37756348 C-0.17527131 49.14366566 -0.16159561 42.909733 -0.14648438 36.67578125 C-0.11433792 24.45042649 -0.06315346 12.22523115 0 0 Z " fill="#FFFFFF" transform="translate(1176,643)"/>
<path d="M0 0 C4.62 0 9.24 0 14 0 C14 38.61 14 77.22 14 117 C9.38 117 4.76 117 0 117 C0 78.39 0 39.78 0 0 Z " fill="#FFFFFF" transform="translate(1143,638)"/>
<path d="M0 0 C0.99 0.66 1.98 1.32 3 2 C1.72395841 4.75187312 0.35527063 6.94516965 -1.65234375 9.21484375 C-2.17586426 9.81176025 -2.69938477 10.40867676 -3.23876953 11.02368164 C-3.79935059 11.6552417 -4.35993164 12.28680176 -4.9375 12.9375 C-6.12164434 14.28858013 -7.30522907 15.64015092 -8.48828125 16.9921875 C-9.0807666 17.66733398 -9.67325195 18.34248047 -10.28369141 19.03808594 C-13.68411329 22.92511158 -17.03764438 26.84763768 -20.328125 30.828125 C-22.0500947 32.90705776 -23.80083012 34.83829585 -25.671875 36.796875 C-35.37922793 47.34995094 -39.70808691 60.99244979 -44.75028992 74.16810608 C-46.98229272 79.99821825 -49.36068596 85.75879569 -51.8125 91.5 C-52.30979614 92.67308716 -52.30979614 92.67308716 -52.81713867 93.86987305 C-53.54256608 95.58084684 -54.27086317 97.2906037 -55 99 C-56.32 99 -57.64 99 -59 99 C-59.14358323 87.51334153 -58.9092794 76.04332211 -58.5625 64.5625 C-58.54285187 63.87599365 -58.52320374 63.1894873 -58.50296021 62.48217773 C-58.37256532 57.98613534 -58.19619525 53.49360228 -58 49 C-57.97131836 47.92121582 -57.94263672 46.84243164 -57.91308594 45.73095703 C-57.56920674 38.69312997 -57.56920674 38.69312997 -54.8828125 35.421875 C-53.51769531 34.59429688 -53.51769531 34.59429688 -52.125 33.75 C-51.24070312 33.18796875 -50.35640625 32.6259375 -49.4453125 32.046875 C-48.92090576 31.73637207 -48.39649902 31.42586914 -47.85620117 31.10595703 C-37.63502215 25.01600031 -27.81986323 18.24335492 -17.9375 11.625 C-14.96833066 9.63669719 -11.99814476 7.64992628 -9.02734375 5.6640625 C-8.3503392 5.20996002 -7.67333466 4.75585754 -6.97581482 4.28799438 C-2.22550291 1.11275145 -2.22550291 1.11275145 0 0 Z " fill="#FFFFFF" transform="translate(790,539)"/>
<path d="M0 0 C-1.46567449 3.72887807 -3.28159406 5.12417793 -6.671875 7.1796875 C-7.63601318 7.77217285 -8.60015137 8.3646582 -9.59350586 8.97509766 C-10.63514893 9.60206543 -11.67679199 10.2290332 -12.75 10.875 C-14.93421994 12.21251961 -17.11779914 13.55108607 -19.30078125 14.890625 C-20.97068115 15.9105957 -20.97068115 15.9105957 -22.67431641 16.95117188 C-28.70319161 20.66533431 -34.65133701 24.50627381 -40.60253906 28.34326172 C-42.27502744 29.41458949 -43.95487841 30.47452739 -45.64257812 31.52172852 C-47.1447457 32.46369461 -48.62603283 33.44044619 -50.07617188 34.46069336 C-57.04547028 39.01155343 -64.56064578 39.00008178 -72.625 39.3125 C-74.01833431 39.38404872 -75.4115671 39.45760365 -76.8046875 39.53320312 C-82.87322079 39.84744989 -88.9222536 40.03256109 -95 40 C-93.53858618 35.63190676 -91.16394082 32.36034632 -88.3125 28.8125 C-84.48188594 23.98763859 -80.98996499 19.08889025 -77.765625 13.828125 C-74.32200979 10.26261191 -69.51682653 10.97129198 -64.84375 10.81640625 C-48.29653939 10.22856228 -33.42446342 6.92492146 -17.58398438 2.36743164 C-16.78628632 2.14093933 -15.98858826 1.91444702 -15.16671753 1.68109131 C-13.66473813 1.25189777 -12.16570719 0.81219415 -10.67044067 0.36016846 C-6.75705572 -0.76512336 -3.92539883 -1.22340802 0 0 Z " fill="#FFFFFF" transform="translate(496,718)"/>
<path d="M0 0 C0.495 1.98 0.495 1.98 1 4 C-5.4405547 6.97295714 -11.9661595 9.54210671 -18.63671875 11.94921875 C-19.65467026 12.31966309 -20.67262177 12.69010742 -21.72142029 13.07177734 C-25.04242748 14.27984416 -28.36495237 15.4836771 -31.6875 16.6875 C-36.35607742 18.3837451 -41.02381869 20.08228322 -45.69140625 21.78125 C-46.87514832 22.21185226 -48.05889038 22.64245453 -49.27850342 23.08610535 C-57.39240106 26.04079546 -65.49481845 29.02526401 -73.58984375 32.03125 C-74.65746445 32.42746048 -75.72508514 32.82367096 -76.82505798 33.23188782 C-80.93642722 34.75830891 -85.04752221 36.2854214 -89.15634155 37.81869507 C-91.96001115 38.86487943 -94.76503972 39.9073426 -97.5703125 40.94921875 C-98.40114853 41.26076904 -99.23198456 41.57231934 -100.08799744 41.89331055 C-105.77312373 44 -105.77312373 44 -108 44 C-109.34242421 41.06657102 -110.67234067 38.12763748 -112 35.1875 C-112.3815625 34.35412109 -112.763125 33.52074219 -113.15625 32.66210938 C-113.69765625 31.45844727 -113.69765625 31.45844727 -114.25 30.23046875 C-114.58515625 29.49207764 -114.9203125 28.75368652 -115.265625 27.99291992 C-116 26 -116 26 -116 23 C-92.51634812 17.78015859 -68.90789964 13.23971783 -45.28393555 8.7074585 C-40.16022791 7.72380311 -35.03717736 6.73673713 -29.9140625 5.75 C-19.94333086 3.83008745 -9.97190418 1.91381247 0 0 Z " fill="#FFFFFF" transform="translate(888,489)"/>
<path d="M0 0 C4.29 0 8.58 0 13 0 C13 38.61 13 77.22 13 117 C8.71 117 4.42 117 0 117 C0 78.39 0 39.78 0 0 Z " fill="#FFFFFF" transform="translate(1303,643)"/>
<path d="M0 0 C4.62 0 9.24 0 14 0 C14.01981934 1.71098877 14.03963867 3.42197754 14.06005859 5.18481445 C14.12781853 10.83673229 14.20459294 16.48847945 14.28752708 22.14019489 C14.33748172 25.56697348 14.38381157 28.99372136 14.421875 32.4206543 C14.46578887 36.36004083 14.52543728 40.29911308 14.5859375 44.23828125 C14.59748871 45.46960281 14.60903992 46.70092438 14.62094116 47.96955872 C14.64081085 49.11051498 14.66068054 50.25147125 14.68115234 51.42700195 C14.69447601 52.432939 14.70779968 53.43887604 14.7215271 54.47529602 C14.83105755 57.24506609 14.83105755 57.24506609 17 60 C18.32 60.33 19.64 60.66 21 61 C21 65.29 21 69.58 21 74 C18.69 74 16.38 74 14 74 C13.70867187 75.0621875 13.41734375 76.124375 13.1171875 77.21875 C8.63993402 92.89376817 8.63993402 92.89376817 3 98 C1.02 98.99 1.02 98.99 -1 100 C-3.31 96.7 -5.62 93.4 -8 90 C-6 86 -6 86 -4.96484375 84.03515625 C-4.62582031 83.38417969 -4.28679687 82.73320313 -3.9375 82.0625 C-3.59589844 81.41410156 -3.25429687 80.76570312 -2.90234375 80.09765625 C-0.89343344 75.42759202 -0.85548161 70.76054993 -0.79467773 65.73120117 C-0.78477814 65.01846039 -0.77487854 64.3057196 -0.76467896 63.57138062 C-0.73323226 61.2286098 -0.70837354 58.88581876 -0.68359375 56.54296875 C-0.66300966 54.9134317 -0.64201282 53.28389981 -0.62062073 51.65437317 C-0.56555024 47.37517492 -0.516075 43.09592968 -0.46777344 38.81665039 C-0.41744841 34.446084 -0.36181988 30.07558545 -0.30664062 25.70507812 C-0.19924291 17.13677467 -0.09824785 8.56841326 0 0 Z " fill="#FFFFFF" transform="translate(1335,686)"/>
<path d="M0 0 C4.45850936 0.79616239 5.90783917 1.93313458 8.5 5.625 C9.04615489 10.07226123 8.60924863 12.75380874 6.5 16.625 C13.33792044 14.03130604 15.88823756 11.22788755 19.2734375 4.76953125 C20.5 2.625 20.5 2.625 22.5 1.625 C24.67824961 1.53940882 26.85915255 1.51786588 29.0390625 1.52734375 C30.34101562 1.53056641 31.64296875 1.53378906 32.984375 1.53710938 C34.36458399 1.54546534 35.74479232 1.55393029 37.125 1.5625 C38.51301926 1.56751499 39.90104022 1.5720779 41.2890625 1.57617188 C44.69275132 1.58799024 48.09635439 1.60446566 51.5 1.625 C52.16877747 3.41876221 52.16877747 3.41876221 52.5 5.625 C51.45683289 7.28289795 51.45683289 7.28289795 49.79956055 8.92480469 C48.87816536 9.85531647 48.87816536 9.85531647 47.93815613 10.80462646 C47.26118179 11.46206848 46.58420746 12.1195105 45.88671875 12.796875 C45.20196976 13.4792926 44.51722076 14.16171021 43.8117218 14.86480713 C42.36054275 16.30623398 40.90333944 17.74161704 39.44067383 19.17138672 C37.19484359 21.36781794 34.9682265 23.58235588 32.74414062 25.80078125 C31.33442279 27.19641382 29.92365037 28.59098211 28.51171875 29.984375 C27.84081711 30.64991394 27.16991547 31.31545288 26.47868347 32.00115967 C25.85496353 32.60889221 25.23124359 33.21662476 24.58862305 33.84277344 C23.76469307 34.65074371 23.76469307 34.65074371 22.92411804 35.47503662 C21.5 36.625 21.5 36.625 19.5 36.625 C19.5 37.285 19.5 37.945 19.5 38.625 C15.6684723 42.57061785 11.36279287 46.04164129 6.5 48.625 C4.38249402 43.11325649 2.4572129 37.58948591 0.75 31.9375 C0.51667969 31.20466797 0.28335938 30.47183594 0.04296875 29.71679688 C-1.17795365 25.66289584 -1.84909661 22.79568281 -0.5 18.625 C-1.634375 18.00625 -2.76875 17.3875 -3.9375 16.75 C-7.375 14.875 -7.375 14.875 -8.5 12.625 C-8.99055907 8.29172826 -8.97744439 6.30499656 -6.4375 2.6875 C-3.5 0.625 -3.5 0.625 0 0 Z " fill="#FFFFFF" transform="translate(707.5,526.375)"/>
<path d="M0 0 C1.21365234 0.39638672 2.42730469 0.79277344 3.67773438 1.20117188 C8.32156326 2.74054847 12.85815226 4.26491041 17.1875 6.5625 C12.91793224 10.20995509 8.32188673 12.97821002 3.5 15.8125 C-4.83571461 20.7628826 -13.11986652 25.7918218 -21.375 30.875 C-22.44387451 31.53209961 -23.51274902 32.18919922 -24.61401367 32.86621094 C-25.65017822 33.50461914 -26.68634277 34.14302734 -27.75390625 34.80078125 C-28.7608252 35.41775879 -29.76774414 36.03473633 -30.80517578 36.67041016 C-32.86045411 37.96351026 -34.88955946 39.29891444 -36.89404297 40.66943359 C-37.86615723 41.3289502 -38.83827148 41.9884668 -39.83984375 42.66796875 C-41.13329712 43.57325317 -41.13329712 43.57325317 -42.45288086 44.49682617 C-44.8125 45.5625 -44.8125 45.5625 -47.12329102 44.7434082 C-47.68072998 44.3537085 -48.23816895 43.96400879 -48.8125 43.5625 C-44.38480398 28.7705323 -37.19659663 14.17253856 -24.54272461 4.92407227 C-22.70544166 3.54216645 -22.70544166 3.54216645 -20.89672852 1.57397461 C-13.86644647 -5.20201547 -8.60707396 -3.10746491 0 0 Z " fill="#FFFFFF" transform="translate(675.8125,510.4375)"/>
<path d="M0 0 C1.57614326 0.3959713 1.57614326 0.3959713 3.18412781 0.79994202 C5.39463897 1.35684168 7.60416502 1.91766459 9.81274414 2.48217773 C13.20318706 3.34867043 16.59636061 4.20369526 19.99023438 5.05664062 C22.13948981 5.5996002 24.28858423 6.14319766 26.4375 6.6875 C27.45515945 6.94482407 28.47281891 7.20214813 29.52131653 7.4672699 C30.45956772 7.70744339 31.39781891 7.94761688 32.36450195 8.19506836 C33.19166214 8.40602646 34.01882233 8.61698456 34.87104797 8.83433533 C36.88671875 9.41015625 36.88671875 9.41015625 38.88671875 10.41015625 C38.88671875 11.73015625 38.88671875 13.05015625 38.88671875 14.41015625 C33.19674827 15.44035566 27.50430225 16.45503919 21.80908203 17.45581055 C19.87441676 17.79797315 17.94047768 18.14426975 16.00732422 18.49487305 C13.21895845 18.99982439 10.42826804 19.48955852 7.63671875 19.9765625 C6.78118408 20.13484024 5.92564941 20.29311798 5.04418945 20.45619202 C-3.77751971 21.96425934 -10.92653419 20.37136695 -19.42578125 17.90625 C-20.70727051 17.54213768 -20.70727051 17.54213768 -22.01464844 17.17066956 C-24.7157981 16.40183108 -27.41453643 15.62488897 -30.11328125 14.84765625 C-31.95557525 14.32172618 -33.79802183 13.79633025 -35.640625 13.27148438 C-40.13329784 11.99054318 -44.62382802 10.70233414 -49.11328125 9.41015625 C-49.11328125 8.09015625 -49.11328125 6.77015625 -49.11328125 5.41015625 C-41.51095495 3.14512084 -33.8836711 1.0329585 -26.17578125 -0.83984375 C-25.47912354 -1.01483398 -24.78246582 -1.18982422 -24.06469727 -1.37011719 C-15.39379296 -3.43180332 -8.44958024 -2.17498853 0 0 Z " fill="#FFFFFF" transform="translate(723.11328125,490.58984375)"/>
<path d="M0 0 C0.58880951 0.22350128 1.17761902 0.44700256 1.78427124 0.67727661 C-5.84431586 42.13432073 -5.84431586 42.13432073 -22.21572876 54.67727661 C-23.59166431 56.13829651 -24.93285152 57.63390246 -26.21572876 59.17727661 C-26.73779907 59.78571411 -27.25986938 60.39415161 -27.79776001 61.02102661 C-28.2656897 61.56758911 -28.73361938 62.11415161 -29.21572876 62.67727661 C-30.82202112 64.52338163 -32.35293343 66.06621038 -34.21572876 67.67727661 C-35.53572876 67.67727661 -36.85572876 67.67727661 -38.21572876 67.67727661 C-38.61832184 36.1408183 -38.61832184 36.1408183 -32.02285767 29.06448364 C-30.67121212 27.67962865 -29.31044514 26.30363725 -27.94229126 24.93508911 C-27.22213837 24.20732269 -26.50198547 23.47955627 -25.76000977 22.72973633 C-24.23903361 21.19797529 -22.7140845 19.67015036 -21.18545532 18.14602661 C-18.84204799 15.80359529 -16.52079919 13.44062262 -14.20010376 11.07571411 C-12.71963461 9.59004085 -11.23790612 8.10562123 -9.75479126 6.62258911 C-9.05987579 5.91127838 -8.36496033 5.19996765 -7.64898682 4.46710205 C-6.99505951 3.82248016 -6.3411322 3.17785828 -5.66738892 2.51370239 C-5.09606232 1.94032135 -4.52473572 1.36694031 -3.93609619 0.77618408 C-2.21572876 -0.32272339 -2.21572876 -0.32272339 0 0 Z " fill="#FFFFFF" transform="translate(649.2157287597656,631.3227233886719)"/>
<path d="M0 0 C-0.54866062 3.95879739 -2.3974356 5.75896271 -5.19140625 8.51953125 C-6.05443359 9.37740234 -6.91746094 10.23527344 -7.80664062 11.11914062 C-8.71607422 12.00794922 -9.62550781 12.89675781 -10.5625 13.8125 C-11.88604492 15.12831055 -11.88604492 15.12831055 -13.23632812 16.47070312 C-14.99262769 18.20623345 -16.76333388 19.92730917 -18.54833984 21.63330078 C-20.01567219 23.04978353 -21.45484927 24.4977985 -22.83056641 26.00341797 C-28.65457368 31.98073152 -36.08267811 33.70390225 -43.91015625 35.85546875 C-46.26548728 36.50426611 -48.60902995 37.18682531 -50.953125 37.875 C-52.45255732 38.30407214 -53.95254025 38.73122578 -55.453125 39.15625 C-56.15109192 39.3581897 -56.84905884 39.56012939 -57.56817627 39.76818848 C-61.01285555 40.70326219 -63.61217118 41.36379052 -67 40 C-66.43713009 35.82838877 -65.07476712 33.21607805 -62.69140625 29.76953125 C-62.02689453 28.80208984 -61.36238281 27.83464844 -60.67773438 26.83789062 C-59.97970703 25.83951172 -59.28167969 24.84113281 -58.5625 23.8125 C-57.86833984 22.80251953 -57.17417969 21.79253906 -56.45898438 20.75195312 C-49.73083142 11.01469401 -49.73083142 11.01469401 -44.70556641 9.65551758 C-43.8176944 9.41219193 -42.92982239 9.16886627 -42.01504517 8.91816711 C-41.05359589 8.66286728 -40.09214661 8.40756744 -39.1015625 8.14453125 C-38.11505707 7.87863693 -37.12855164 7.61274261 -36.1121521 7.33879089 C-34.023289 6.77813039 -31.93346448 6.22104158 -29.84277344 5.66723633 C-26.64179409 4.81696101 -23.44589414 3.94924508 -20.25 3.08007812 C-18.22163934 2.5379943 -16.1930021 1.99694414 -14.1640625 1.45703125 C-13.20666168 1.19565872 -12.24926086 0.93428619 -11.2628479 0.66499329 C-10.36867157 0.43112411 -9.47449524 0.19725494 -8.55322266 -0.04370117 C-7.76871735 -0.25306808 -6.98421204 -0.462435 -6.17593384 -0.67814636 C-3.80802946 -1.02839536 -2.2583216 -0.73692452 0 0 Z " fill="#FFFFFF" transform="translate(454,660)"/>
<path d="M0 0 C10.25066876 0.57026741 20.23831797 2.01932922 30.3515625 3.6875 C31.98482859 3.9531194 33.61816121 4.21832992 35.2515564 4.4831543 C38.64563519 5.03458639 42.03910436 5.58957938 45.43212891 6.14746094 C49.7811879 6.86242811 54.13136057 7.57032745 58.48195839 8.27586365 C61.84167711 8.82113685 65.20096089 9.36904904 68.56010056 9.9178772 C70.16519153 10.17999823 71.77037751 10.44153822 73.37565994 10.70248413 C75.60844882 11.06605053 77.84066949 11.43291794 80.07275391 11.80078125 C81.34148346 12.00872314 82.61021301 12.21666504 83.91738892 12.4309082 C87 13 87 13 90 14 C90 15.32 90 16.64 90 18 C77.13441476 23.35227449 66.47363323 27.62190669 52.59228516 24.50488281 C49.45232993 23.8933338 46.31514434 23.54064707 43.13671875 23.1796875 C24.41792311 20.84944572 12.08472832 15.6174399 -1 2 C-0.67 1.34 -0.34 0.68 0 0 Z " fill="#FFFFFF" transform="translate(520,612)"/>
<path d="M0 0 C4.62 0 9.24 0 14 0 C14.06789254 7.84977085 14.12288318 15.69938001 14.15543652 23.54936409 C14.17106391 27.1948046 14.19224805 30.84003307 14.22631836 34.48535156 C14.25901717 38.00613349 14.27687501 41.52671201 14.28463173 45.04763412 C14.29283732 47.03842635 14.31623998 49.02913725 14.33988953 51.01980591 C14.34011612 52.24061859 14.34034271 53.46143127 14.34057617 54.71923828 C14.34723801 55.78957306 14.35389984 56.85990784 14.36076355 57.962677 C13.83457275 62.39275705 12.28402177 65.76516455 9.0625 68.86328125 C8.381875 69.34152344 7.70125 69.81976562 7 70.3125 C5.9790625 71.04919922 5.9790625 71.04919922 4.9375 71.80078125 C1.85770059 73.70702806 -0.64877612 74.12051187 -4.1875 74.0625 C-5.445625 74.041875 -6.70375 74.02125 -8 74 C-8 69.71 -8 65.42 -8 61 C-6.02 60.34 -4.04 59.68 -2 59 C-0.26945391 57.26945391 -0.83035372 54.92196747 -0.79467773 52.56225586 C-0.77473251 51.40112778 -0.75478729 50.23999969 -0.73423767 49.04368591 C-0.71752518 47.780168 -0.70081268 46.51665009 -0.68359375 45.21484375 C-0.66281265 43.92888809 -0.64203156 42.64293243 -0.62062073 41.31800842 C-0.56533824 37.89364096 -0.51595639 34.4692125 -0.46777344 31.04473877 C-0.41760335 27.55255686 -0.3618939 24.0604639 -0.30664062 20.56835938 C-0.19898358 13.71231498 -0.09806717 6.8561882 0 0 Z " fill="#FFFFFF" transform="translate(1372,686)"/>
<path d="M0 0 C4.62 0 9.24 0 14 0 C14.09065547 7.6847946 14.16391937 15.36938771 14.20724869 23.05458832 C14.22805315 26.62383519 14.25623769 30.19269474 14.30175781 33.76171875 C14.345474 37.21120466 14.36919071 40.66031992 14.37950897 44.11006165 C14.39041005 46.05539182 14.42159466 48.00057452 14.45318604 49.94567871 C14.45499217 57.12327496 13.94325468 61.93065869 10 68 C5.83425496 71.79734582 1.08447988 74.35468157 -4.625 74.375 C-6.295625 74.189375 -6.295625 74.189375 -8 74 C-8 69.71 -8 65.42 -8 61 C-6.02 60.34 -4.04 59.68 -2 59 C-0.26945391 57.26945391 -0.83035372 54.92196747 -0.79467773 52.56225586 C-0.77473251 51.40112778 -0.75478729 50.23999969 -0.73423767 49.04368591 C-0.71752518 47.780168 -0.70081268 46.51665009 -0.68359375 45.21484375 C-0.66281265 43.92888809 -0.64203156 42.64293243 -0.62062073 41.31800842 C-0.56533824 37.89364096 -0.51595639 34.4692125 -0.46777344 31.04473877 C-0.41760335 27.55255686 -0.3618939 24.0604639 -0.30664062 20.56835938 C-0.19898358 13.71231498 -0.09806717 6.8561882 0 0 Z " fill="#FFFFFF" transform="translate(1275,686)"/>
<path d="M0 0 C16.97263292 1.453693 33.90629812 3.2301871 50.83862305 5.08666992 C54.51194804 5.48928283 58.18579327 5.88693076 61.85978222 6.28343296 C64.71756471 6.59255241 67.57501073 6.90469621 70.43236732 7.21772575 C71.78903117 7.36589187 73.14581025 7.51300686 74.50270653 7.65902901 C76.37999574 7.86140674 78.25678466 8.06840917 80.13354492 8.27563477 C81.7294471 8.44978661 81.7294471 8.44978661 83.35758972 8.62745667 C86 9 86 9 89 10 C89 11.32 89 12.64 89 14 C85.18481177 15.32340181 81.36218594 16.62229238 77.53149414 17.90014648 C76.23274945 18.33703357 74.93611916 18.78026428 73.6418457 19.23022461 C71.76839171 19.88025747 69.88614581 20.50476937 68.00390625 21.12890625 C66.87799072 21.51119385 65.7520752 21.89348145 64.59204102 22.28735352 C55.73939942 24.04368199 47.8365823 20.86610485 39.52734375 17.96484375 C38.3636879 17.56672989 37.20003204 17.16861603 36.00111389 16.75843811 C32.31019365 15.4934693 28.62385539 14.21570288 24.9375 12.9375 C22.42577807 12.07297211 19.9130608 11.21138145 17.40039062 10.34960938 C11.26354234 8.24280512 5.13039798 6.12549543 -1 4 C-0.67 2.68 -0.34 1.36 0 0 Z " fill="#FFFFFF" transform="translate(331,640)"/>
<path d="M0 0 C-0.30295747 3.07889333 -1.05186551 4.05098494 -3.30078125 6.26171875 C-4.85207595 7.51120514 -6.40444455 8.75953834 -7.97241211 9.98803711 C-8.53323486 10.42768799 -9.09405762 10.86733887 -9.671875 11.3203125 C-10.23841797 11.7627832 -10.80496094 12.20525391 -11.38867188 12.66113281 C-13.22338514 14.13493028 -13.22338514 14.13493028 -15.515625 16.6171875 C-25.15064653 25.86799038 -37.30139376 24.18682107 -49.8604126 24.02001953 C-53.82754305 23.98290018 -57.79453551 24.01163669 -61.76171875 24.03125 C-70.50817598 24.06753991 -79.25363486 24.04825683 -88 24 C-88 23.01 -88 22.02 -88 21 C-72.77626745 16.65130828 -57.44966968 12.70224186 -42.11010742 8.78686523 C-39.22409021 8.04978061 -36.33943802 7.30765748 -33.45581055 6.5612793 C-29.92266322 5.64678639 -26.38749553 4.74055025 -22.85071373 3.8402195 C-21.5188348 3.49977441 -20.18766801 3.15652942 -18.85727882 2.81030846 C-17.00430185 2.32876539 -15.14831223 1.85886106 -13.29223633 1.3894043 C-12.24288406 1.12024704 -11.1935318 0.85108978 -10.11238098 0.57377625 C-6.68385223 -0.05828274 -3.47876382 -0.09723651 0 0 Z " fill="#FFFFFF" transform="translate(591,717)"/>
<path d="M0 0 C0.68798828 1.78149414 0.68798828 1.78149414 1 4 C-0.18408203 5.75170898 -0.18408203 5.75170898 -2.0078125 7.49609375 C-2.66523438 8.13740234 -3.32265625 8.77871094 -4 9.43945312 C-5.051875 10.42848633 -5.051875 10.42848633 -6.125 11.4375 C-7.14207031 12.42073242 -7.14207031 12.42073242 -8.1796875 13.42382812 C-9.50609631 14.70525214 -10.83672685 15.98232297 -12.171875 17.25463867 C-16.7091955 21.5562896 -16.7091955 21.5562896 -20.75 26.3125 C-25.18947232 29.64210424 -31.98107441 28.07816972 -37.25390625 27.34375 C-39.02451094 27.06933894 -40.79406072 26.78803633 -42.5625 26.5 C-43.47580078 26.35691406 -44.38910156 26.21382812 -45.33007812 26.06640625 C-47.55442736 25.71703202 -49.7775921 25.36148178 -52 25 C-51.0965949 19.03752635 -49.69078111 14.37096123 -44.90234375 10.48828125 C-43.59967754 9.72951349 -42.27609705 9.00591597 -40.9375 8.3125 C-40.21594727 7.9316626 -39.49439453 7.5508252 -38.75097656 7.15844727 C-27.20268423 1.61445604 -12.74821865 -0.20687645 0 0 Z " fill="#FFFFFF" transform="translate(485,619)"/>
<path d="M0 0 C1.32 0 2.64 0 4 0 C6.0078125 2.16796875 6.0078125 2.16796875 8.125 5.1875 C8.91166751 6.28724093 9.69947049 7.38617034 10.48828125 8.484375 C10.89643066 9.05994141 11.30458008 9.63550781 11.72509766 10.22851562 C13.85225811 13.1842177 16.08334129 16.05841287 18.3125 18.9375 C19.51326172 20.49791016 19.51326172 20.49791016 20.73828125 22.08984375 C22.2249852 24.00278751 23.74275134 25.89206081 25.29296875 27.75390625 C27 30 27 30 27 32 C25.69289063 31.88140625 24.38578125 31.7628125 23.0390625 31.640625 C11.9853581 30.79050013 2.49478118 31.18664733 -8.21484375 34.08984375 C-11.65886673 34.91797311 -14.48173233 35.18169457 -18 35 C-17.73632812 33.12719727 -17.73632812 33.12719727 -17 31 C-15.34179688 29.85913086 -15.34179688 29.85913086 -13.21875 28.96484375 C-12.45949219 28.63033203 -11.70023437 28.29582031 -10.91796875 27.95117188 C-10.12003906 27.61666016 -9.32210938 27.28214844 -8.5 26.9375 C-6.92297191 26.26872799 -5.3498064 25.59075093 -3.78125 24.90234375 C-2.7303418 24.46136353 -2.7303418 24.46136353 -1.65820312 24.01147461 C0.34757408 23.03265389 0.34757408 23.03265389 1 20 C0.93993441 17.88017801 0.93993441 17.88017801 0.625 15.5859375 C0.52703125 14.74289062 0.4290625 13.89984375 0.328125 13.03125 C0.21984375 12.1546875 0.1115625 11.278125 0 10.375 C-0.21325613 8.63340823 -0.42185157 6.8912372 -0.625 5.1484375 C-0.72039062 4.37677246 -0.81578125 3.60510742 -0.9140625 2.81005859 C-0.94242187 2.21273926 -0.97078125 1.61541992 -1 1 C-0.67 0.67 -0.34 0.34 0 0 Z " fill="#FFFFFF" transform="translate(306,643)"/>
<path d="M0 0 C10.24584349 1.40765307 20.4890364 2.8405944 30.6875 4.5625 C31.39898193 4.67698486 32.11046387 4.79146973 32.84350586 4.90942383 C37.76543849 5.76543849 37.76543849 5.76543849 40 8 C39.11957031 8.73605469 38.23914063 9.47210937 37.33203125 10.23046875 C36.15875156 11.21602369 34.98558023 12.20170766 33.8125 13.1875 C33.23435547 13.67025391 32.65621094 14.15300781 32.06054688 14.65039062 C25.74104954 19.97019346 20.77953628 25.45203459 16.1875 32.3125 C15.68541016 33.05306641 15.18332031 33.79363281 14.66601562 34.55664062 C13.43907229 36.36784269 12.21724734 38.18227378 11 40 C9.68 39.34 8.36 38.68 7 38 C7.42152344 36.90300781 7.84304688 35.80601562 8.27734375 34.67578125 C8.83093462 33.22143235 9.38430862 31.7670009 9.9375 30.3125 C10.21529297 29.59126953 10.49308594 28.87003906 10.77929688 28.12695312 C11.54971108 26.09417348 12.27911242 24.05075981 13 22 C13.33515625 21.10925781 13.6703125 20.21851563 14.015625 19.30078125 C14.24343557 16.73271742 14.24343557 16.73271742 11.83203125 14.4296875 C10.83558594 13.58664062 9.83914063 12.74359375 8.8125 11.875 C7.82894531 11.02679687 6.84539062 10.17859375 5.83203125 9.3046875 C3.58895408 7.47928676 1.3348578 5.70517061 -1 4 C-0.67 2.68 -0.34 1.36 0 0 Z " fill="#FFFFFF" transform="translate(344,669)"/>
<path d="M0 0 C0.495 1.485 0.495 1.485 1 3 C-2.60794234 6.72933106 -6.2767189 10.38596563 -10 14 C-10.70511719 14.69738281 -11.41023438 15.39476562 -12.13671875 16.11328125 C-18.81762561 22.03290599 -27.37794938 24.33791795 -36 26 C-38.953125 25.75 -38.953125 25.75 -41 25 C-41.33 24.34 -41.66 23.68 -42 23 C-37.999406 14.668763 -34.07779368 7.75474578 -25.06640625 4.4140625 C-19.12163007 2.58396693 -13.09239658 1.23237878 -7 0 C-6.29351318 -0.20761963 -5.58702637 -0.41523926 -4.85913086 -0.62915039 C-3 -1 -3 -1 0 0 Z " fill="#FFFFFF" transform="translate(340,697)"/>
<path d="M0 0 C2.4375 2.0625 2.4375 2.0625 4 4 C4.515625 3.360625 5.03125 2.72125 5.5625 2.0625 C8.75638769 -0.64002035 10.84846877 -0.92716612 15 -1 C17.94755732 0.34562399 19.54277272 1.08554544 21 4 C21.56872038 11.0521327 21.56872038 11.0521327 19.5 14.5 C16.03242622 16.58054427 12.87916216 16.92946262 9 16 C6 13.5 6 13.5 4 11 C3.505 11.825 3.01 12.65 2.5 13.5 C-0.15220735 16.15220735 -0.49725226 16.39544037 -4 16.5 C-6.47722354 16.31547683 -8.11680556 15.95207977 -10.4375 15 C-12.83595948 11.92997187 -13.33838059 8.85753875 -13 5 C-9.3147153 -0.97270278 -6.71729025 -1.50559954 0 0 Z " fill="#FFFFFF" transform="translate(912,715)"/>
<path d="M0 0 C2.89479637 1.73687782 3.01335881 3.05152682 3.875 6.375 C4.01304072 10.37818085 3.50923533 11.93315682 1 15 C0.34 15 -0.32 15 -1 15 C-1 15.66 -1 16.32 -1 17 C-0.360625 17.28875 0.27875 17.5775 0.9375 17.875 C3 19 3 19 4 21 C4.41691743 24.75225691 4.27593327 26.54011122 2.3125 29.8125 C-0.29111052 32.27537482 -1.44440576 32.91327819 -5 33 C-8.35706953 32.04083728 -11.05575994 30.9675243 -13 28 C-13.56045628 23.67648012 -13.4786058 21.70295227 -11 18.0625 C-10.01 17.0415625 -10.01 17.0415625 -9 16 C-9.66 15.319375 -10.32 14.63875 -11 13.9375 C-13.48980198 10.28060335 -13.55310065 8.34579086 -13 4 C-9.85749884 -1.68643067 -5.910576 -1.266552 0 0 Z " fill="#FFFFFF" transform="translate(1109,646)"/>
<path d="M0 0 C2.81831785 2.59581908 3.85564038 4.23008205 4.5625 8 C3.82020487 11.95890738 2.01305468 13.43890352 -1 16 C-0.175 16.86625 0.65 17.7325 1.5 18.625 C3.44997137 20.98607645 3.98965833 21.94369534 4.5625 25.0625 C3.82633819 28.90690056 3.03301431 30.4848174 0 33 C-3.14404141 33.71534153 -5.85595859 33.71534153 -9 33 C-12.04103074 30.47816963 -12.84085399 28.93498284 -13.5 25.0625 C-12.87923287 21.26030136 -11.31353637 19.03651648 -9 16 C-9.66 15.29875 -10.32 14.5975 -11 13.875 C-13.36494446 10.47539234 -13.67568691 9.05412149 -13 5 C-9.4284905 -0.5419975 -6.37818163 -1.82233761 0 0 Z " fill="#FFFFFF" transform="translate(1000,758)"/>
<path d="M0 0 C6 0 6 0 7.65917969 1.51293945 C8.07586914 2.20605225 8.49255859 2.89916504 8.921875 3.61328125 C9.38980469 4.36673828 9.85773438 5.12019531 10.33984375 5.89648438 C10.80519531 6.69376953 11.27054688 7.49105469 11.75 8.3125 C12.23082031 9.09818359 12.71164062 9.88386719 13.20703125 10.69335938 C14.10071527 12.15586457 14.98550681 13.62386754 15.85839844 15.09887695 C16.85738619 16.76250347 17.92359148 18.38538722 19 20 C19.33 13.4 19.66 6.8 20 0 C21.32 0 22.64 0 24 0 C24 9.9 24 19.8 24 30 C22.35 30 20.7 30 19 30 C17.4453125 28.41796875 17.4453125 28.41796875 16.125 26.1875 C15.3825 24.97320313 15.3825 24.97320313 14.625 23.734375 C14.08875 22.83203125 13.5525 21.9296875 13 21 C11.71304651 18.97616185 10.42140737 16.95529535 9.125 14.9375 C8.09375 13.308125 7.0625 11.67875 6 10 C5.67 16.6 5.34 23.2 5 30 C3.35 30 1.7 30 0 30 C0 20.1 0 10.2 0 0 Z " fill="#FFFFFF" transform="translate(1147,1008)"/>
<path d="M0 0 C0.99 0.66 1.98 1.32 3 2 C1.3983198 5.58471283 -0.75716691 8.48798224 -3.1875 11.5625 C-4.29158203 12.98755859 -4.29158203 12.98755859 -5.41796875 14.44140625 C-11.24622993 20.2167634 -19.99251467 21.58953618 -27.6875 23.75 C-28.81478516 24.07871094 -29.94207031 24.40742187 -31.10351562 24.74609375 C-32.18697266 25.05160156 -33.27042969 25.35710938 -34.38671875 25.671875 C-35.36858154 25.9512793 -36.35044434 26.23068359 -37.36206055 26.51855469 C-40.01170403 27.00213608 -41.48977039 26.88740611 -44 26 C-42.7660359 22.28632638 -40.73311613 21.01080089 -37.32911682 19.26126099 C-36.69585983 18.95074799 -36.06260284 18.64023499 -35.41015625 18.3203125 C-34.75099716 17.98506561 -34.09183807 17.64981873 -33.41270447 17.30441284 C-31.30140647 16.23341746 -29.18241957 15.17881055 -27.0625 14.125 C-24.98257701 13.07789807 -22.90436131 12.02746407 -20.82626343 10.97674561 C-19.47267686 10.29273743 -18.11837392 9.61014495 -16.76333618 8.92901611 C-11.1056742 6.07862026 -5.5332394 3.08535131 0 0 Z " fill="#FFFFFF" transform="translate(412,715)"/>
<path d="M0 0 C3.90883967 4.0949749 4.7285768 7.01528832 5 12.5625 C4.87782957 17.67838663 3.7760391 21.66930651 0.625 25.75 C-3.79023006 28.96107641 -8.07903129 29.5216681 -13.375 28.75 C-17.04889249 27.4329442 -18.85709035 26.44649919 -21.1875 23.3125 C-24.0191621 17.20207125 -24.21396882 11.39937522 -22.1875 5 C-19.97219259 1.02772464 -17.71873014 -1.19936235 -13.5625 -3.0625 C-8.39635714 -3.50531225 -4.12910082 -3.21826976 0 0 Z M-15.8125 3.625 C-19.10606614 8.10424995 -18.95593599 12.33069714 -18.375 17.75 C-17.04018742 21.38019085 -17.04018742 21.38019085 -14.375 23.75 C-10.43804287 24.96687766 -8.3724703 25.17115413 -4.5625 23.5625 C-1.64151726 21.14225716 -0.54672067 19.12153524 -0.07421875 15.34765625 C-0.03524165 8.55598412 -0.03524165 8.55598412 -3.375 2.75 C-7.64821649 0.61339175 -12.12852672 0.7911744 -15.8125 3.625 Z " fill="#FFFFFF" transform="translate(1325.375,1010.25)"/>
<path d="M0 0 C3.90883967 4.0949749 4.7285768 7.01528832 5 12.5625 C4.87782957 17.67838663 3.7760391 21.66930651 0.625 25.75 C-3.79023006 28.96107641 -8.07903129 29.5216681 -13.375 28.75 C-17.04889249 27.4329442 -18.85709035 26.44649919 -21.1875 23.3125 C-24.0191621 17.20207125 -24.21396882 11.39937522 -22.1875 5 C-19.97219259 1.02772464 -17.71873014 -1.19936235 -13.5625 -3.0625 C-8.39635714 -3.50531225 -4.12910082 -3.21826976 0 0 Z M-15.8125 3.625 C-19.10606614 8.10424995 -18.95593599 12.33069714 -18.375 17.75 C-17.04018742 21.38019085 -17.04018742 21.38019085 -14.375 23.75 C-10.43804287 24.96687766 -8.3724703 25.17115413 -4.5625 23.5625 C-1.64151726 21.14225716 -0.54672067 19.12153524 -0.07421875 15.34765625 C-0.03524165 8.55598412 -0.03524165 8.55598412 -3.375 2.75 C-7.64821649 0.61339175 -12.12852672 0.7911744 -15.8125 3.625 Z " fill="#FFFFFF" transform="translate(1223.375,1010.25)"/>
<path d="M0 0 C3.0625 1.875 3.0625 1.875 5 4 C5 4.99 5 5.98 5 7 C3.1875 7.6875 3.1875 7.6875 1 8 C0.32904297 7.28070312 0.32904297 7.28070312 -0.35546875 6.546875 C-2.47307398 4.5550183 -3.63201653 4.56727997 -6.5 4.5625 C-10.04872815 4.68787184 -10.04872815 4.68787184 -13 6.5625 C-15.68113918 13.09777675 -14.80444704 18.42346162 -13 25 C-7.00165247 26.34845282 -7.00165247 26.34845282 -1.5 24.375 C0.0936225 21.85176438 0.6721883 19.95030531 1 17 C-1.97 17 -4.94 17 -8 17 C-8 16.01 -8 15.02 -8 14 C-3.71 14 0.58 14 5 14 C5 19.28 5 24.56 5 30 C3.35 29.67 1.7 29.34 0 29 C-0.61875 29.309375 -1.2375 29.61875 -1.875 29.9375 C-5.0288625 31.51443125 -7.52356282 31.30495063 -11 31 C-15.59040105 29.07843677 -17.90942355 26.49086793 -20 22 C-20.73378787 16.240877 -21.06119852 10.20190306 -18.4375 4.875 C-13.34355698 -1.13324048 -7.30887793 -2.03555666 0 0 Z " fill="#FFFFFF" transform="translate(1378,1008)"/>
<path d="M0 0 C15.77325679 0.51128871 31.38063907 2.88279386 47 5 C47.495 6.98 47.495 6.98 48 9 C45.44165429 9.86881541 42.87957539 10.7202133 40.3125 11.5625 C39.2306543 11.9327832 39.2306543 11.9327832 38.12695312 12.31054688 C37.42119141 12.53935547 36.71542969 12.76816406 35.98828125 13.00390625 C35.34415283 13.21861572 34.70002441 13.4333252 34.03637695 13.65454102 C27.35703465 14.78765088 19.47332797 10.627249 13.25 8.5625 C11.98050037 8.15029324 10.71096942 7.73818291 9.44140625 7.32617188 C8.24902344 6.93107422 7.05664062 6.53597656 5.828125 6.12890625 C4.1869873 5.58858765 4.1869873 5.58858765 2.51269531 5.03735352 C0 4 0 4 -1 2 C-0.67 1.34 -0.34 0.68 0 0 Z " fill="#FFFFFF" transform="translate(321,752)"/>
<path d="M0 0 C1.14662109 0.11794922 1.14662109 0.11794922 2.31640625 0.23828125 C4.4375 0.6875 4.4375 0.6875 7.4375 2.6875 C7.1075 4.0075 6.7775 5.3275 6.4375 6.6875 C5.90125 6.543125 5.365 6.39875 4.8125 6.25 C-0.89067129 4.79469053 -0.89067129 4.79469053 -6.5625 5.6875 C-6.5625 7.3375 -6.5625 8.9875 -6.5625 10.6875 C-5.73105469 10.94144531 -4.89960937 11.19539062 -4.04296875 11.45703125 C-2.95628906 11.80121094 -1.86960937 12.14539063 -0.75 12.5 C0.86841797 13.00466797 0.86841797 13.00466797 2.51953125 13.51953125 C5.30742632 14.6354357 6.74051803 15.24663552 8.4375 17.6875 C9.06012378 20.73330823 8.95222236 23.6268391 8.4375 26.6875 C6.56129387 29.18910818 5.19858697 30.30695652 2.4375 31.6875 C-3.14221317 32.05948088 -6.75849256 31.89017163 -11.5625 28.6875 C-12.9375 26.5 -12.9375 26.5 -13.5625 24.6875 C-12.2425 24.0275 -10.9225 23.3675 -9.5625 22.6875 C-8.881875 23.368125 -8.20125 24.04875 -7.5 24.75 C-4.61616249 27.0764842 -4.61616249 27.0764842 -0.75 26.4375 C0.301875 26.19 1.35375 25.9425 2.4375 25.6875 C2.7675 24.0375 3.0975 22.3875 3.4375 20.6875 C2.426875 20.254375 1.41625 19.82125 0.375 19.375 C-0.25921875 19.09914063 -0.8934375 18.82328125 -1.546875 18.5390625 C-2.85830634 17.98500818 -4.18129241 17.45730922 -5.515625 16.9609375 C-8.15880263 15.95031076 -10.19973321 15.11072792 -12.0625 12.9375 C-12.80460306 9.59803625 -12.34435601 6.99535235 -11.5625 3.6875 C-8.67561898 -0.43661574 -4.69836413 -0.53264027 0 0 Z " fill="#FFFFFF" transform="translate(1507.5625,1007.3125)"/>
<path d="M0 0 C2.99452434 2.24589325 3.81623122 3.44869367 5 7 C3.1875 7.6875 3.1875 7.6875 1 8 C-0.02196992 7.02246356 -1.01979625 6.0194119 -2 5 C-4.92870332 3.99807518 -6.6062512 3.90625029 -9.625 4.625 C-12.73505335 6.4255572 -13.64762572 7.6546531 -15 11 C-15.55197576 15.8297879 -15.55430526 19.75507543 -13 24 C-10.32366974 26.0815902 -8.88246332 25.99587591 -5.4375 25.875 C-1.94771074 25.31454227 -1.94771074 25.31454227 -0.0625 22.9375 C0.4634375 21.9784375 0.4634375 21.9784375 1 21 C2.32 21.33 3.64 21.66 5 22 C3.82191948 25.3529984 2.80593388 27.7552529 0 30 C-3.72599543 31.24199848 -7.12979217 31.53508555 -11 31 C-15.47681278 28.63489136 -18.80818765 26.03370416 -20.6875 21.25 C-21.69127318 14.02283308 -21.10062819 9.0947693 -17 3 C-12.13020291 -1.71761593 -6.29337787 -1.51550092 0 0 Z " fill="#FFFFFF" transform="translate(1060,1008)"/>
<path d="M0 0 C1.32 0 2.64 0 4 0 C4 3.96 4 7.92 4 12 C8.95 12 13.9 12 19 12 C19 8.04 19 4.08 19 0 C20.32 0 21.64 0 23 0 C23 9.9 23 19.8 23 30 C21.68 30 20.36 30 19 30 C19 25.38 19 20.76 19 16 C14.05 16 9.1 16 4 16 C4 20.62 4 25.24 4 30 C2.68 30 1.36 30 0 30 C0 20.1 0 10.2 0 0 Z " fill="#FFFFFF" transform="translate(1093,1008)"/>
<path d="M0 0 C-0.47645208 4.28806873 -1.65902484 6.26647487 -5 9 C-5.66 9 -6.32 9 -7 9 C-7 9.66 -7 10.32 -7 11 C-8.375 13.125 -8.375 13.125 -11 15 C-16.67522809 15.74024714 -22.3951081 14.97476381 -28 14 C-27.58306691 9.1357806 -25.67251308 7.10123327 -22 4 C-15.0390017 -0.2371294 -7.89951376 -0.16121457 0 0 Z " fill="#FFFFFF" transform="translate(365,726)"/>
<path d="M0 0 C6.27 0 12.54 0 19 0 C19 1.32 19 2.64 19 4 C14.05 4 9.1 4 4 4 C4 6.97 4 9.94 4 13 C8.29 13 12.58 13 17 13 C17 13.99 17 14.98 17 16 C12.71 16 8.42 16 4 16 C4 19.63 4 23.26 4 27 C8.95 27 13.9 27 19 27 C19 27.99 19 28.98 19 30 C12.73 30 6.46 30 0 30 C0 20.1 0 10.2 0 0 Z " fill="#FFFFFF" transform="translate(1449,1008)"/>
<path d="M0 0 C6.27 0 12.54 0 19 0 C19 1.32 19 2.64 19 4 C14.05 4 9.1 4 4 4 C4 6.97 4 9.94 4 13 C8.29 13 12.58 13 17 13 C17 13.99 17 14.98 17 16 C12.71 16 8.42 16 4 16 C4 19.63 4 23.26 4 27 C8.95 27 13.9 27 19 27 C19 27.99 19 28.98 19 30 C12.73 30 6.46 30 0 30 C0 20.1 0 10.2 0 0 Z " fill="#FFFFFF" transform="translate(993,1008)"/>
<path d="M0 0 C2.375 1.5625 2.375 1.5625 4 4 C4.80730018 8.01178761 4.61584485 10.97359191 2.5 14.5 C-1.04101433 16.6246086 -3.97168467 16.66173558 -8 16 C-10.4375 14.9375 -10.4375 14.9375 -12 13 C-13.07845965 9.11754525 -13.39223942 6.9289881 -11.8125 3.1875 C-8.21206573 -1.15785171 -5.41352052 -1.57894349 0 0 Z " fill="#FFFFFF" transform="translate(1285,763)"/>
<path d="M0 0 C2.375 1.5625 2.375 1.5625 4 4 C4.80730018 8.01178761 4.61584485 10.97359191 2.5 14.5 C-1.03588973 16.62153384 -3.97901723 16.791013 -8 16 C-10.5 14.5 -10.5 14.5 -12 12 C-12.54719708 9.21841484 -12.58180519 6.7778346 -12 4 C-8.34417575 -0.75257152 -5.74337249 -1.49327685 0 0 Z " fill="#FFFFFF" transform="translate(1382,763)"/>
<path d="M0 0 C2.5 1.5 2.5 1.5 4 4 C4.79710231 8.05193677 4.68780769 10.96828847 2.375 14.4375 C-0.5659132 16.37231132 -2.47650456 16.92809193 -6 17 C-8.75 16 -8.75 16 -11 14 C-12.88461324 9.83814576 -13.35136967 7.94869812 -11.75 3.625 C-8.78525099 -0.82212351 -5.02651945 -0.68543447 0 0 Z " fill="#FFFFFF" transform="translate(1063,662)"/>
<path d="M0 0 C3.2883921 2.71292348 3.90851499 4.34816929 4.5 8.5625 C4 12 4 12 2.3125 14.375 C-0.29641704 16.20829306 -1.81896986 16.8448278 -5 17 C-7.8959757 16.24153017 -9.6172741 15.33169578 -11.875 13.375 C-13.57237338 9.7916562 -13.14367032 6.74075499 -12 3 C-9.03448266 -0.79586219 -4.48373063 -0.96473712 0 0 Z " fill="#FFFFFF" transform="translate(1029,662)"/>
<path d="M0 0 C2.5 1.5 2.5 1.5 4 4 C4.54765177 6.78389652 4.56555682 9.21791747 4 12 C2.09496794 14.75171298 0.7143524 15.71801879 -2.375 16.9375 C-5.93108969 17.0221688 -8.00233435 15.83947665 -11 14 C-12.60420518 10.79158965 -12.47462745 7.4806013 -12 4 C-9.15871837 -0.73546938 -5.07616558 -0.99858995 0 0 Z " fill="#FFFFFF" transform="translate(1080,662)"/>
<path d="M0 0 C7.59 0 15.18 0 23 0 C23 1.32 23 2.64 23 4 C20.03 4 17.06 4 14 4 C14 12.58 14 21.16 14 30 C12.35 30 10.7 30 9 30 C9 21.42 9 12.84 9 4 C6.03 4 3.06 4 0 4 C0 2.68 0 1.36 0 0 Z " fill="#FFFFFF" transform="translate(942,1008)"/>
<path d="M0 0 C1.65 0 3.3 0 5 0 C5 8.91 5 17.82 5 27 C9.62 27 14.24 27 19 27 C19 27.99 19 28.98 19 30 C12.73 30 6.46 30 0 30 C0 20.1 0 10.2 0 0 Z " fill="#FFFFFF" transform="translate(1257,1008)"/>
<path d="M0 0 C1.65 0 3.3 0 5 0 C5 9.9 5 19.8 5 30 C3.35 30 1.7 30 0 30 C0 20.1 0 10.2 0 0 Z " fill="#FFFFFF" transform="translate(1413,1008)"/>
</svg>
